<?xml version="1.0" standalone="no"?>
<!DOCTYPE svg PUBLIC "-//W3C//DTD SVG 1.1//EN" "http://www.w3.org/Graphics/SVG/1.1/DTD/svg11.dtd" >
<!--
2013-9-30: Created.
-->
<svg>
<metadata>
Created by iconfont
</metadata>
<defs>

<font id="iconfont" horiz-adv-x="1024" >
  <font-face
    font-family="iconfont"
    font-weight="500"
    font-stretch="normal"
    units-per-em="1024"
    ascent="896"
    descent="-128"
  />
    <missing-glyph />
    
    <glyph glyph-name="biaoqian" unicode="&#58896;" d="M611.107205-211.903809c-33.266661 0-64.564481 12.950963-88.076988 36.484959l-486.479767 486.479767c-30.568203 30.556946-42.999326 73.954339-33.289174 116.078739L57.320497 661.366258c10.616802 46.128597 47.267537 82.779332 93.384877 93.352131L384.92072 808.776585c41.605583 9.544377 85.909625-3.096525 116.078739-33.266661l486.479767-486.479767c23.533996-23.523763 36.496216-54.810327 36.496216-88.088244s-12.961196-64.564481-36.496216-88.088244L699.205683-175.41885C675.671687-198.952846 644.395356-211.903809 611.107205-211.903809zM412.967496 766.673675c-5.994528 0-12.010545-0.685615-17.872043-2.035356L160.857595 710.568866c-29.328979-6.724145-52.642964-30.02585-59.388599-59.377342L47.410799 416.943432c-6.193049-26.797319 1.725294-54.41226 21.168112-73.854055l486.479767-486.479767c29.993105-29.981848 82.192977-29.937846 112.119567 0L955.451788 144.893386c14.97404 14.97404 23.224957 34.881438 23.224957 56.048527 0 21.178345-8.249895 41.085744-23.224957 56.059783l-486.479767 486.479767C454.019471 758.434014 434.113095 766.673675 412.967496 766.673675zM304.806077 408.151185 304.806077 408.151185c-26.454512 0-51.337225 10.307763-70.050426 29.031197-38.641065 38.630832-38.641065 101.502765 0 140.133597 18.712177 18.712177 43.595914 29.008684 70.071915 29.008684 26.454512 0 51.337225-10.296507 70.050426-29.008684 18.73469-18.723434 29.04143-43.60717 29.04143-70.083172 0-26.454512-10.329253-51.337225-29.04143-70.050426C356.165816 418.457926 331.283102 408.151185 304.806077 408.151185zM304.82859 561.024945c-14.377452 0-27.891234-5.585205-38.044478-15.737426-20.968567-20.979824-20.968567-55.097876 0-76.077699 20.349467-20.326954 55.716976-20.305465 76.066443 0 10.174734 10.163477 15.770172 23.667026 15.770172 38.033221 0 14.366196-5.596462 27.869744-15.770172 38.044478C332.698335 555.43974 319.18353 561.024945 304.82859 561.024945z"  horiz-adv-x="1024" />

    
    <glyph glyph-name="person" unicode="&#58941;" d="M749.548254 264.380622L749.575884 264.54639799999995 749.820454 264.969023 749.923808 264.65384500000005ZM724.868155 276.808676L724.892715 276.95705499999997 725.111702 277.33567800000003 725.2038 277.05324599999994ZM941.1448741-73.62694712999996c0 0.0447089-0.01241907 0.08569196-0.01366062 0.13040086-0.22975466 191.29833396-125.63581915 353.21917531-298.69415173 408.39247978 90.84233561 47.20393633 152.93434599 142.0949149 152.93434598 251.54361754 0 156.50236735-126.87028193 283.3726505-283.37140773 283.3726505S228.6273495 742.94316115 228.6273495 586.4407926c0-109.44373524 62.0845587-204.32974522 152.91944383-251.53616586-172.49202025-54.98080703-297.63355716-216.0198882-298.69166743-406.50104286-0.00496739-0.20739959 0.08817627-2.4428459 0.12419193-2.45278189 0.96745214-14.68936769 13.06618539-26.3410107 28.00020988-26.34101069 14.93154019 0 27.27120562 11.68765989 28.2448667 26.37205898 0 205.86102662 166.88353311 372.74455852 372.74455852 372.74455852 205.86102662 0 372.74455852-166.88353311 372.74455852-372.74455852l0.09811102 0c0.21485127-15.38111351 12.71348156-27.79529338 28.14675566-27.79529337s27.93190437 12.4129371 28.14675566 27.79529337l0.03974153 0c0 0.10556272-0.00745168 0.20864114-0.00745169 0.31296232C941.13742241-73.67910651 941.1448741-73.65426835999995 941.1448741-73.62694712999996zM285.26983882 586.44203535c0 125.21977719 101.51038399 226.73016118 226.73016118 226.73016119 125.21977719 0 226.72891965-101.51038399 226.72891965-226.73016119s-101.51038399-226.73140273-226.72891965-226.73140273C386.77898004 359.7106314 285.26983882 461.22225695 285.26983882 586.44203535z"  horiz-adv-x="1024" />

    
    <glyph glyph-name="chuang" unicode="&#58950;" d="M512.471233 747.951265c-246.679215 0-446.651666-199.973474-446.651666-446.651666s199.973474-446.652689 446.651666-446.652689c246.680239 0 446.652689 199.974497 446.652689 446.652689S759.150448 747.951265 512.471233 747.951265zM512.471233-95.469983c-219.129766 0-396.768559 177.639816-396.768559 396.768559S293.341466 698.068158 512.471233 698.068158s396.768559-177.639816 396.768559-396.768559S731.599975-95.469983 512.471233-95.469983zM450.514135 566.744203l-6.495948-10.492982c42.303478-38.97364 82.944084-78.446653 121.917724-118.420063l-27.480888-30.978549c-35.643802 39.636742-73.617671 78.778204-113.922632 117.420293-32.645514-51.632961-66.290799-94.771457-100.93176-129.412418L528.960789 394.860485c-1.998517-46.304605-3.665483-78.782298-4.996804-97.4341-1.666966-49.634444-24.319895-74.449619-67.953671-74.449619-17.656125 0-39.309284 0.499373-64.956408 1.499144-1.998517 14.653745-4.332678 27.981285-6.995321 39.97341 22.317285-3.665483 43.6348-5.664 63.956637-5.995551 23.984251-0.335644 36.807301 14.821567 38.474266 45.469588 0.99977 15.989159 1.998517 34.640961 2.998287 55.962569L357.07707 359.885925l0-200.364377c0-18.651802 9.993608-27.981285 29.979802-27.981285l81.944314 0c26.314319 0 41.135886 8.662287 44.469817 25.982768 3.997034 15.989159 6.995321 35.975353 8.993838 59.959603 12.990872-5.332449 26.146497-10.161431 39.473013-14.490016-3.333932-21.98471-7.494695-42.307571-12.491499-60.95835-8.330736-30.978549-31.81459-46.468334-70.452585-46.468334l-99.432617 0c-40.972157 0-61.458747 20.321838-61.458747 60.95835L318.102407 388.864934c-10.660804-9.993608-21.153786-19.155269-31.478945-27.480888-9.993608 16.320711-17.656125 28.312836-22.984481 35.975353 54.627155 41.636283 101.594863 98.097202 140.904147 169.384805L450.514135 566.744203zM689.852152 563.246543l39.97341 0 0-415.21877c0-40.636512-20.154016-61.122079-60.458977-61.458747-13.990642 0-40.141232 0.167822-78.446653 0.499373-1.666966 15.326057-4.332678 30.479175-7.995091 45.469588 35.308157-2.998287 60.123332-4.497431 74.449619-4.497431 21.649066 0 32.477692 10.660804 32.477692 31.978319L689.852152 563.246543zM623.895975 210.985664l-38.474266 0L585.421708 518.776725l38.474266 0L623.895975 210.985664z"  horiz-adv-x="1024" />

    
    <glyph glyph-name="icon32204" unicode="&#58917;" d="M853.33333333 653.65333333l-170.66666666 0L682.66666667 691.2c0 58.02666667-44.37333333 102.4-102.4 102.4L443.73333333 793.6c-58.02666667 0-102.4-44.37333333-102.4-102.4l0-37.54666667L170.66666667 653.65333333c-75.09333333 0-136.53333333-61.44-136.53333334-136.53333333l0-409.6c0-75.09333333 61.44-136.53333333 136.53333334-136.53333333l682.66666666 0c75.09333333 0 136.53333333 61.44 136.53333334 136.53333333l0 409.6C989.86666667 592.2133333300001 928.42666667 653.65333333 853.33333333 653.65333333zM409.6 691.2c0 20.48 13.65333333 34.13333333 34.13333333 34.13333333L580.26666667 725.33333333c20.48 0 34.13333333-13.65333333 34.13333333-34.13333333l0-37.54666667L409.6 653.65333333 409.6 691.2zM170.66666667 585.3866666700001l682.66666666 0c37.54666667 0 68.26666667-30.72 68.26666667-68.26666667L921.6 384l-136.53333333 0 0 34.13333333-102.4 0 0-34.13333333L341.33333333 384l0 34.13333333L238.93333333 418.13333333l0-34.13333333L102.4 384l0 133.12C102.4 554.66666667 133.12 585.3866666700001 170.66666667 585.3866666700001zM853.33333333 39.25333333000003L170.66666667 39.25333333000003c-37.54666667 0-68.26666667 30.72-68.26666667 68.26666667L102.4 315.73333333000005l136.53333333 0 0-34.13333333 102.4 0 0 34.13333333 341.33333334 0 0-34.13333333 102.4 0 0 34.13333333 136.53333333 0 0-208.21333333C921.6 69.97333332999995 890.88 39.25333333000003 853.33333333 39.25333333000003z"  horiz-adv-x="1024" />

    
    <glyph glyph-name="xinzeng" unicode="&#59281;" d="M927.958 452.78h-347.178v347.178h-137.561v-347.178h-347.177v-137.559h347.177v-347.178h137.561v347.178h347.178z"  horiz-adv-x="1024" />

    
    <glyph glyph-name="yijian" unicode="&#58945;" d="M835.02125001 818.4300000000001L190.104875 818.4300000000001C119.632625 818.4300000000001 62.5625 775.39424999 62.5625 722.21325001l0-486.35662501c0-53.12925001 57.128625-96.2235 127.542375-96.2235l322.14375 0L766.935125-51.55499999999995l-13.68 191.188125 81.70762499 0c70.47225001 0 127.59974999 43.095375 127.59975001 96.2235L962.5625 722.21325001C962.60637501 775.33575001 905.478875 818.4300000000001 835.02125001 818.4300000000001zM260.057375 407.83425001c-43.39574999 0-78.543 35.463375-78.543 79.23937498s35.148375 79.232625 78.543 79.232625c43.344 0 78.492375-35.456625 78.49237499-79.23262498S303.401375 407.83425001 260.057375 407.83425001zM506.718125 407.7825c-43.4025 0-78.544125 35.514-78.544125 79.232625 0 43.776 35.141625 79.2315 78.544125 79.2315 43.39574999 0 78.550875-35.4555 78.550875-79.2315C585.269 443.23125002 550.113875 407.7825 506.718125 407.7825zM758.792375 408.976125c-43.3305 0-78.48674999 35.456625-78.48674999 79.239375 0 43.76924999 35.15625001 79.232625 78.48674999 79.232625 43.4025 0 78.6015-35.463375 78.6015-79.232625C837.393875 444.43275001 802.194875 408.976125 758.792375 408.976125z"  horiz-adv-x="1025" />

    
    <glyph glyph-name="biaoti1" unicode="&#58889;" d="M807.563636-104.727273 216.436364-104.727273C148.945455-104.727273 93.090909-48.872727 93.090909 16.290909L93.090909 616.727273c0 67.490909 48.872727 116.363636 116.363636 116.363636l116.363636 0L325.818182 802.909091l46.545455 0c27.927273 37.236364 81.454545 69.818182 139.636364 69.818182s111.709091-32.581818 139.636364-69.818182l46.545455 0 0-69.818182 116.363636 0c67.490909 0 116.363636-51.2 116.363636-118.690909l0-598.109091C930.909091-48.872727 875.054545-104.727273 807.563636-104.727273L807.563636-104.727273zM651.636364 756.363636l-46.545455 0c0 34.909091-46.545455 69.818182-93.090909 69.818182-46.545455 0-93.090909-34.909091-93.090909-69.818182l-46.545455 0 0-139.636364 279.272727 0L651.636364 756.363636 651.636364 756.363636zM884.363636 616.727273c0 32.581818-34.909091 69.818182-69.818182 69.818182l-116.363636 0 0-116.363636L325.818182 570.181818 325.818182 686.545455 209.454545 686.545455c-34.909091 0-69.818182-34.909091-69.818182-69.818182l0-605.090909c0-34.909091 34.909091-69.818182 69.818182-69.818182l605.090909 0c34.909091 0 69.818182 34.909091 69.818182 69.818182L884.363636 616.727273 884.363636 616.727273zM721.454545 104.727273 302.545455 104.727273c-16.290909 0-23.272727 6.981818-23.272727 23.272727 0 16.290909 6.981818 23.272727 23.272727 23.272727l418.909091 0c16.290909 0 23.272727-6.981818 23.272727-23.272727C744.727273 111.709091 737.745455 104.727273 721.454545 104.727273L721.454545 104.727273zM721.454545 244.363636 302.545455 244.363636c-16.290909 0-23.272727 6.981818-23.272727 23.272727 0 16.290909 6.981818 23.272727 23.272727 23.272727l418.909091 0c16.290909 0 23.272727-6.981818 23.272727-23.272727C744.727273 251.345455 737.745455 244.363636 721.454545 244.363636L721.454545 244.363636zM721.454545 384 302.545455 384c-16.290909 0-23.272727 6.981818-23.272727 23.272727 0 16.290909 6.981818 23.272727 23.272727 23.272727l418.909091 0c16.290909 0 23.272727-6.981818 23.272727-23.272727C744.727273 390.981818 737.745455 384 721.454545 384L721.454545 384zM721.454545 360.727273"  horiz-adv-x="1024" />

    
    <glyph glyph-name="fujian1" unicode="&#58895;" d="M556.21703375 507.99331969M588.1126025 539.96533687M743.64453406 786.08181844c-221.70250313 127.99999969-507.82273313 51.33431531-635.82273375-170.36818782-127.99999969-221.70250313-51.33431531-507.82273313 170.36818781-635.82273375 73.06105219-42.18181781 152.71977469-61.2997725 232.093185-63.4573575 161.65591125 0.72352406 316.45682156 82.66474688 403.72954875 233.82554532C1043.46726781 374.48093438 965.34703812 658.08181781 743.64453406 786.08181844zM863.62578969 179.34999374999995c-112.00000031-193.98969-362.35520156-261.07216406-556.34489157-149.07216469-193.98969 112.00000031-261.07216406 362.35520156-149.07216468 556.34489157 112.00000031 193.98969 362.35520156 261.07216406 556.34489156 149.07216468C908.54331594 623.694885 977.08033531 375.85903031 863.62578969 179.34999374999995zM765.21837219 363.81243844000005l-31.89556875-31.97201719 0 0-164.90627906-163.44423563c-69.21957375-67.52818312-179.99437688-67.39576875-245.00321344 0.36925969s-68.85031406 177.47503031 0.36925968 245.00321344l144.25733063 145.1337525 0 0 2.90909062 5.03869313 16.67505657 17.24568187 0 0 40.23309656 40.59485906c22.10349469 20.82982969 50.31048375 34.77667688 82.77667687 32.82795563 0 0 0 0 0 0 29.94684656-0.49417594 60.56875031-11.45548313 81.39858094-33.55897688 20.82982969-22.10349469 34.77667688-50.31048375 32.82795563-82.77667687-0.49417594-29.94684656-11.45548313-60.56875031-33.55897688-81.39858094l-63.79113656-63.94403531 0 0-142.80278437-142.61440594c-9.79207406-11.1421875-25.6876425-15.4013925-40.12866469-17.14125 0 0 0 0 0 0-16.96036969-0.28531219-29.5571025 6.98741438-40.69929 16.77948844-23.34917625 23.55804-22.46525625 59.99812594 1.09278375 83.34730219l159.47784187 159.86008781c0 0 0 0 0 0l33.35011407 34.49136469c9.79207406 11.1421875 10.96130719 30.62190375-0.18088125 40.41397781-11.1421875 9.79207406-30.62190375 10.96130719-40.41397782-0.18088125l-30.4410225-29.45267063 0 0-164.90627906-163.44423562c-45.66153469-44.17900687-44.91002812-118.51372312-0.73102125-164.17525781 20.82982969-22.10349469 51.45173344-33.06480094 81.39858094-33.55897688 0 0 0 0 0 0 29.94684656-0.49417594 60.67318219 11.99812594 82.77667687 32.82795563l164.90627907 163.44423562 0 0 40.23309656 40.59485906c31.89556875 31.97201719 51.58414781 77.71000125 50.33846531 122.09787094 0.20886375 46.90721625-17.99718844 91.00977375-49.96920562 122.90534156-31.97201719 31.89556875-77.71000125 51.58414781-122.09787094 50.33846532 0 0 0 0 0 0-46.90721625 0.20886375-91.00977375-17.99718844-122.90534156-49.96920563l-55.45360782-55.32119437-149.68576781-148.71790032c-90.25826719-92.33190469-89.82005625-237.02744625 1.05730313-329.80506093 44.17900687-45.66153469 105.42281438-67.58414812 165.31650843-68.5725 59.89369406-0.98835187 119.89181906 21.47690438 164.4885525 69.62980312l160.93238719 162.37943438c0 0 0 0 0 0l33.35011406 34.49136468c9.79207406 11.1421875 10.96130719 30.62190375-0.18088125 40.41397782C794.4901625 373.78539280999996 777.52979281 373.50008062999996 765.21837219 363.81243844000005z"  horiz-adv-x="1024" />

    
    <glyph glyph-name="baojia" unicode="&#58885;" d="M773.792425-37.067988l-523.932774 0c-57.867966 0-104.784508 46.915519-104.784508 104.784508l0 523.932774c0 57.868989 46.916543 104.789625 104.784508 104.789625l88.824001 0 0 52.392254 60.315714 0c22.712281 31.198559 64.46829 52.392254 112.826672 52.392254 48.359404 0 90.119507-21.193695 112.804159-52.392254l60.343343 0 0-52.392254 88.818885 0c57.868989 0 104.789625-46.920636 104.789625-104.789625l0-523.932774C878.582049 9.847531 831.661414-37.067988 773.792425-37.067988L773.792425-37.067988zM642.809231 706.67198l-58.207703 0c0 28.944216-32.586163 52.392254-72.77549 52.392254-40.184211 0-72.774467-23.448038-72.774467-52.392254l-58.208726 0 0-115.022687 261.966387 0L642.809231 696.438918 642.809231 706.67198zM836.422857 591.649294c0 28.92068-33.6811 62.625316-62.630433 62.625316l-88.818885 0 0-104.784508L338.683652 549.490102 338.683652 654.27461l-88.824001 0c-28.944216 0-62.625316-33.704636-62.625316-62.625316l0-523.932774c0-28.919656 33.6811-62.625316 62.625316-62.625316l523.932774 0c28.949332 0 62.630433 33.70566 62.630433 62.625316L836.422857 591.649294 836.422857 591.649294zM695.206602 125.225305 328.45059 125.225305c-14.458293 0-26.193569 6.619768-26.193569 21.082154s11.735275 21.082154 26.193569 21.082154l366.756011 0c14.45727 0 26.193569-6.619768 26.193569-21.082154S709.663872 125.225305 695.206602 125.225305L695.206602 125.225305zM695.206602 256.208499 328.45059 256.208499c-14.458293 0-26.193569 6.619768-26.193569 21.082154 0 14.462387 11.735275 21.082154 26.193569 21.082154l366.756011 0c14.45727 0 26.193569-6.619768 26.193569-21.082154C721.400171 262.828266 709.663872 256.208499 695.206602 256.208499L695.206602 256.208499zM695.206602 387.191692 328.45059 387.191692c-14.458293 0-26.193569 6.619768-26.193569 21.082154 0 14.462387 11.735275 21.082154 26.193569 21.082154l366.756011 0c14.45727 0 26.193569-6.619768 26.193569-21.082154C721.400171 393.81146 709.663872 387.191692 695.206602 387.191692L695.206602 387.191692zM695.206602 387.191692"  horiz-adv-x="1024" />

    
    <glyph glyph-name="shichang" unicode="&#58952;" d="M109.64705908-66C91.11764727-66 75.23529453-50.11764727000002 75.23529453-34.23529453000003c0 18.52941182 15.88235273 31.76470547 34.41176455 31.76470547l66.1764709 0 0 84.70588271c0 58.23529453 15.88235273 116.47058818 45 166.76470547 29.11764727 50.29411729 71.47058818 90 121.76470547 119.11764726l7.94117637 5.29411729-7.94117637 5.29411729c-50.29411729 29.11764727-92.64705908 71.47058818-121.76470547 119.11764727-29.11764727 50.29411729-45 108.52941182-45 166.76470546L175.8235291 767.8235291 109.64705908 767.8235291C91.11764727 767.8235291 75.23529453 783.70588271 75.23529453 802.23529453 75.23529453 818.11764727 91.11764727 834 109.64705908 834l807.35294092 0C932.88235273 834 948.76470547 818.11764727 948.76470547 802.23529453c0-18.52941182-15.88235273-31.76470547-34.41176455-31.76470547l-63.52941182 0 0-103.23529453c0-58.23529453-15.88235273-116.47058818-45-166.76470547-29.11764727-50.29411729-71.47058818-90-121.76470547-119.11764726l-7.94117636-5.29411729 7.94117636-5.29411728c50.29411729-29.11764727 92.64705908-71.47058818 121.76470547-119.11764726 29.11764727-50.29411729 45-108.52941182 45-166.76470547l0-84.70588273 63.52941182 0c18.52941182 0 34.41176455-15.88235273 34.41176455-31.76470546 0-18.52941182-15.88235273-31.76470547-34.41176455-31.76470547L109.64705908-63.35294092000004zM461.70588271 349.58823544999996C461.70588271 349.58823544999996 461.70588271 349.58823544999996 461.70588271 349.58823544999996L461.70588271 349.58823544999996c-2.64705908-2.64705908-2.64705908-2.64705908-2.64705907-2.64705908-2.64705908-2.64705908-7.94117637-5.29411729-13.23529453-5.29411729-119.11764727-29.11764727-203.8235291-137.64705908-203.82352911-259.41176455l0-84.70588271 542.64705908 0 0 84.70588271c0 121.76470547-84.70588271 227.64705908-206.47058819 259.41176455 0 0 0 0-2.64705907 0 0 0 0 0-2.64705909 0 0 0 0 0 0 0l0 0c-5.29411729 2.64705908-7.94117637 2.64705908-10.58823544 7.94117637l0 0c0 0 0 0 0 0l0 0c0 0 0 0 0 0 0 0 0 0 0 0l0 0c0 0 0 0 0 0l0 0c0 2.64705908-2.64705908 2.64705908-2.64705909 5.29411728 0 0 0 0 0 2.64705909l0 0c0 0 0 0 0 0l0 0c0 0 0 0 0 0l0 0c0 0 0 0 0 0 0 0 0 0 0 2.64705908 0 0 0 0 0 0l0 0c0 0 0 0 0 0l0 0c0 0 0 0 0 2.64705908l0 0c0 0 0 0 0 0-2.64705908 15.88235273 7.94117637 31.76470547 23.8235291 34.41176455 121.76470547 29.11764727 206.47058818 137.64705908 206.47058819 259.41176455L789.94117637 767.8235291 242 767.8235291l0-103.23529453c0-121.76470547 84.70588271-227.64705908 206.47058818-259.41176455 5.29411729 0 7.94117637-2.64705908 10.58823545-5.29411729l0 0c0 0 0 0 0 0l0 0 0 0c5.29411729-5.29411729 7.94117637-10.58823545 10.58823545-15.88235273 2.64705908-7.94117637 0-13.23529453-2.64705908-21.1764709l0 0c0 0 0 0 0 0 0 0 0 0 0 0 0 0 0 0 0 0 0 0 0 0 0 0l0 0c0 0 0-2.64705908-2.64705908-2.64705908l0 0c0 0 0 0 0 0l0 0C464.35294092 352.23529453000003 464.35294092 352.23529453000003 461.70588271 349.58823544999996L461.70588271 349.58823544999996C464.35294092 352.23529453000003 464.35294092 352.23529453000003 461.70588271 349.58823544999996L461.70588271 349.58823544999996C461.70588271 349.58823544999996 461.70588271 349.58823544999996 461.70588271 349.58823544999996L461.70588271 349.58823544999996 461.70588271 349.58823544999996 461.70588271 349.58823544999996z"  horiz-adv-x="1024" />

    
    <glyph glyph-name="mima" unicode="&#59063;" d="M827.20286827 532.00555093l-84.32807147 0c0 135.44208-103.5192928 238.96028053-235.45429653 238.96028054-132.11947307 0-235.4553888-103.51820053-235.4553888-238.96028054l-84.51035627 0c0 162.565424 143.37311147 323.288352 319.7801856 323.288352C683.64092267 855.2939029300001 827.20286827 694.57097493 827.20286827 532.00555093L827.20286827 532.00555093 827.20286827 532.00555093zM934.23032747 393.42642347c0 46.50230827-37.83012907 84.32807147-84.33243734 84.32807146L174.16650987 477.75449493c-46.50339947 0-84.32807147-37.8257632-84.32807147-84.32807146l0-400.42217174c0-46.50121707 37.824672-84.32698027 84.32807147-84.32698026l675.54691093 0c46.50121707 0 84.33134613 37.8257632 84.33134613 84.32698026L934.044768 393.42642347 934.23032747 393.42642347 934.23032747 393.42642347zM578.82926293 80.28599467000004c0-34.8753664-28.22906133-63.29435413-63.2878048-63.29435414l-9.0465728 0c-34.87100053 0-63.2899872 28.2334272-63.2899872 63.29435414L443.20489813 251.89471679999997c0 34.8742752 28.2312448 63.29326187 63.2899872 63.29326187l9.0465728 0c34.8742752 0 63.2878048-28.2345184 63.2878048-63.29326187L578.82926293 80.28599467000004 578.82926293 80.28599467000004 578.82926293 80.28599467000004zM578.82926293 80.28599467000004"  horiz-adv-x="1024" />

    
    <glyph glyph-name="exit" unicode="&#59028;" d="M774.968 729.752c30.72-21.845 58.028-46.593 81.918-74.236 23.893-27.65 44.371-57.514 61.437-89.598 17.068-32.084 30.038-66.047 38.912-101.885 8.873-35.838 13.31-72.188 13.31-109.050 0-63.486-12.115-123.044-36.349-178.682-24.234-55.634-57.001-104.102-98.301-145.398-41.303-41.304-89.77-74.068-145.403-98.302-55.632-24.234-115.196-36.352-178.675-36.352-62.804 0-122.026 12.118-177.659 36.352-55.638 24.234-104.274 56.999-145.914 98.302-41.643 41.298-74.408 89.766-98.301 145.398-23.894 55.638-35.839 115.196-35.839 178.684 0 36.176 4.265 71.675 12.8 106.489s20.649 67.922 36.348 99.326c15.704 31.399 35.159 60.753 58.368 88.056 23.209 27.308 49.148 51.884 77.822 73.728 15.019 10.923 31.229 15.018 48.639 12.289 17.403-2.735 31.569-11.265 42.493-25.599 10.925-14.34 15.019-30.38 12.29-48.128-2.736-17.749-11.265-32.084-25.599-43.009-43.008-31.399-75.947-69.966-98.817-115.705-22.863-45.738-34.297-94.886-34.297-147.447 0-45.054 8.53-87.552 25.599-127.486 17.064-39.934 40.443-74.746 70.135-104.44 29.7-29.7 64.513-53.25 104.447-70.656s82.426-26.108 127.486-26.108c45.051 0 87.545 8.702 127.478 26.108s74.752 40.956 104.445 70.656c29.693 29.694 53.243 64.506 70.65 104.44 17.411 39.934 26.111 82.432 26.111 127.486 0 53.242-12.285 103.589-36.859 151.032-24.576 47.443-59.050 86.521-103.42 117.239-15.017 10.24-24.064 24.235-27.133 41.984-3.074 17.749 0.509 34.133 10.747 49.153 10.242 14.334 24.236 23.039 41.984 26.108 17.749 3.070 34.126-0.509 49.147-10.749v0zM511.818 351.91c-17.752 0-32.94 6.315-45.569 18.942-12.629 12.63-18.944 27.82-18.944 45.57l0 389.102c0 17.749 6.315 33.109 18.944 46.078 12.629 12.971 27.817 19.454 45.569 19.454 18.428 0 33.957-6.484 46.587-19.454 12.629-12.97 18.944-28.329 18.944-46.078v-389.103c0-17.749-6.315-32.939-18.944-45.57-12.63-12.626-28.159-18.941-46.587-18.941v0z"  horiz-adv-x="1024" />

    
    <glyph glyph-name="xiangmu" unicode="&#59081;" d="M815.51872 426.28608 397.056 426.28608c-12.65152 0-22.9632-10.368-22.9632-23.07584 0-12.67712 10.31168-22.9632 22.9632-22.9632l418.4576 0c12.65152 0 22.9632 10.31168 22.9632 22.9632C838.50752 415.91808 828.16512 426.28608 815.51872 426.28608zM815.51872 233.23648 397.056 233.23648c-12.65152 0-22.9632-10.368-22.9632-23.07584 0-12.67712 10.31168-22.9632 22.9632-22.9632l418.4576 0c12.65152 0 22.9632 10.31168 22.9632 22.9632C838.50752 222.86848 828.16512 233.23648 815.51872 233.23648zM936.27904 678.05184l-299.79648 0-5.35552 14.8736c-35.97824 99.56352-104.49408 123.08992-155.60192 125.2864L87.46496 818.21184c-32.82432 0-59.53024-26.39872-59.53024-58.8544l0-735.92832c0-32.45568 26.71104-58.8544 59.53024-58.8544l848.8448 0c32.8192 0 59.53024 26.39872 59.53024 58.8544L995.84 619.19744C995.80928 651.65312 969.10336 678.05184 936.27904 678.05184zM72.3456 731.17696c0 45.76768 16.64512 39.31136 85.77536 39.31136l247.1936 0c104.75008 0 132.01408-22.54336 152.18176-57.62048l15.0272-34.92864L72.448 677.9392 72.3456 731.17696zM947.40992 81.664c0-68.65408-24.17152-69.47328-81.89952-69.47328L158.12608 12.19072c-70.58944 0-81.93024 5.8112-81.93024 81.31072L76.19584 630.3232l803.97824 0c74.89536 0 67.26656-29.38368 67.26656-81.31072l0-455.51104C947.44064 93.50144 947.40992 81.664 947.40992 81.664zM183.13216 442.89536l74.97216 0 0-74.97216-74.97216 0 0 74.97216ZM183.13216 247.96672l74.97216 0 0-74.97216-74.97216 0 0 74.97216Z"  horiz-adv-x="1024" />

    
    <glyph glyph-name="xiugai" unicode="&#59016;" d="M339.096684 341.58929c-0.608987-0.762483-1.231165-1.600915-1.497984-2.591243l-47.091872-172.647545c-2.742141-10.055183 0.063957-20.923814 7.504312-28.541649 5.573621-5.408333 12.911646-8.404302 20.70836-8.404302 2.589644 0 5.179888 0.303794 7.718767 0.989329l171.466346 46.749304c0.253828 0 0.380742-0.253828 0.584204-0.253828 1.980657 0 3.910349 0.735501 5.38275 2.235484l458.447573 458.394009c13.634756 13.635155 21.100694 32.198569 21.100694 52.411265 0 22.878488-9.725406 45.782759-26.713888 62.745858l-43.295646 43.370994c-16.987482 17.012865-39.917936 26.739271-62.77224 26.739271-20.212296 0-38.774711-7.465339-52.460232-21.051127L339.78222 343.162224C339.300147 342.731516 339.452044 342.096946 339.096684 341.58929M917.473745 682.387829l-45.530131-45.504548-73.842735 75.010943 44.895361 44.870378c7.084197 7.134563 20.872848 6.094268 28.998139-2.057605l43.296645-43.371394c4.544919-4.544319 7.134163-10.536856 7.134163-16.454244C922.425188 689.981281 920.647393 685.562677 917.473745 682.387829M420.633802 334.37718l330.794921 330.844887 73.842735-75.061508L495.111506 259.974825 420.633802 334.37718 420.633802 334.37718 420.633802 334.37718zM360.350674 200.251517l23.894799 87.7583 63.76157-63.762569L360.350674 200.251517 360.350674 200.251517 360.350674 200.251517zM946.52285 500.725996c-17.368024 0-31.614365-14.118428-31.664332-31.689914l0-427.365646c0-22.420799-18.181673-40.602272-40.629453-40.602272L151.251643 1.068164c-22.396815 0-40.692211 18.181673-40.692211 40.602272L110.559433 739.217299c0 22.422797 18.271012 40.655236 40.692211 40.655236l465.644693 0c17.41919 0 31.588583 14.169393 31.588583 31.613566 0 17.41959-14.169393 31.614965-31.588583 31.614965L146.439906 843.101065c-54.658741 0-99.109004-44.437671-99.109004-99.109604l0-707.145755c0-54.695716 44.450263-99.082622 99.109004-99.082622l732.562922 0c54.671733 0 99.135586 44.386706 99.135586 99.082622L978.138414 469.213961C978.035484 486.607568 963.842107 500.725996 946.52285 500.725996"  horiz-adv-x="1024" />

    
    <glyph glyph-name="renwu" unicode="&#58888;" d="M901.12 890.88l-727.04 0c-87.04 0-158.72-71.68-158.72-158.72l0-691.2c0-87.04 71.68-158.72 158.72-158.72l727.04 0c87.04 0 158.72 71.68 158.72 158.72l0 691.2c0 87.04-66.56 158.72-158.72 158.72zM983.04 35.84000000000003c0-46.08-35.84-81.92-81.92-81.92l-727.04 0c-46.08 0-81.92 35.84-81.92 81.92l0 696.32c0 46.08 35.84 81.92 81.92 81.92l727.04 0c46.08 0 81.92-35.84 81.92-81.92 0 0 0-696.32 0-696.32zM399.36 640l-112.64-112.64-51.2 51.2c-15.36 15.36-40.96 15.36-51.2 0-15.36-15.36-15.36-40.96 0-51.2l81.92-81.92c5.12-5.12 15.36-10.24 30.72-10.24s15.36 5.12 30.72 10.24l138.24 138.24c15.36 15.36 15.36 40.96 0 51.2-30.72 15.36-51.2 15.36-66.56 5.12zM870.4 578.56l-353.28 0c-25.6 0-35.84-15.36-35.84-35.84 0-25.6 15.36-35.84 35.84-35.84l353.28 0c25.6 0 35.84 15.36 35.84 35.84s-15.36 35.84-35.84 35.84zM307.2 348.15999999999997c-66.56 0-117.76-51.2-117.76-117.76s51.2-117.76 117.76-117.76 117.76 51.2 117.76 117.76c0 71.68-56.32 117.76-117.76 117.76zM307.2 194.55999999999995c-25.6 0-40.96 15.36-40.96 40.96s15.36 40.96 40.96 40.96c25.6 0 40.96-15.36 40.96-40.96 0-25.6-20.48-40.96-40.96-40.96zM870.4 271.36l-353.28 0c-25.6 0-35.84-15.36-35.84-35.84s15.36-35.84 35.84-35.84l353.28 0c25.6 0 35.84 15.36 35.84 35.84s-15.36 35.84-35.84 35.84z"  horiz-adv-x="1076" />

    
    <glyph glyph-name="biaoti" unicode="&#58913;" d="M817.152-92.672l-600.064 0c-69.632 0-125.44 56.832-125.44 126.976L91.648 658.432c0 70.144 56.32 126.976 125.44 126.976l94.208 0 0 11.776c0 35.328 28.672 63.488 64 63.488l283.648 0c35.328 0 64-28.672 64-63.488l0-14.336 94.208 0c69.632 0 125.44-56.832 125.44-126.976l0-621.568C942.592-35.84 886.784-92.672 817.152-92.672zM648.192 797.184l-262.656 0c-6.656 0-11.776-5.12-11.776-11.776l0-103.936c0-6.656 5.12-11.776 11.776-11.776l262.656 0c6.656 0 11.776 5.12 11.776 11.776l0 103.936C659.968 792.064 654.848 797.184 648.192 797.184zM884.736 655.872c0 35.328-32.768 70.656-67.584 70.656l-98.816 0 0-51.712c0-35.328-28.672-63.488-64-63.488l-274.432 0c-35.328 0-64 28.672-64 63.488L315.904 726.528l-98.816 0c-34.816 0-67.584-33.28-67.584-68.096l0-623.616c0-35.328 32.768-68.096 67.584-68.096l600.064 0c34.816 0 67.584 33.28 67.584 68.096L884.736 655.872zM722.944 131.072l-411.648 0c-17.408 0-31.232 9.728-31.232 27.136 0 17.408 13.824 31.744 31.232 31.744l411.648 0c17.408 0 31.232-14.336 31.232-31.744C754.176 140.288 740.352 131.072 722.944 131.072zM722.944 274.432l-411.648 0c-17.408 0-31.232 10.752-31.232 28.16 0 17.408 13.824 28.16 31.232 28.16l411.648 0c17.408 0 31.232-10.752 31.232-28.16C754.176 285.184 740.352 274.432 722.944 274.432zM722.944 415.744l-411.648 0c-17.408 0-31.232 14.336-31.232 31.744s13.824 27.136 31.232 27.136l411.648 0c17.408 0 31.232-9.728 31.232-27.136S740.352 415.744 722.944 415.744z"  horiz-adv-x="1024" />

    
    <glyph glyph-name="gouwu" unicode="&#58887;" d="M919.1 896h-814.2c-57.8 0-104.9-47-104.9-104.8v-814.3c0-57.9 47.1-104.9 104.9-104.9h814.3c57.8 0 104.9 47 104.9 104.8v814.4c-0.1 57.8-47.2 104.8-105 104.8zM973.3-23.2c0-29.9-24.3-54.1-54.2-54.1h-814.2c-29.9 0-54.2 24.3-54.2 54.1v814.3c0 29.9 24.3 54.1 54.2 54.1h814.3c29.9 0 54.2-24.3 54.2-54.1v-814.3zM802.1 695.7c-27 0-48.9-22-48.9-49 0-14.3 6.4-27.5 18.2-37.2l2.2-1.8-0.5-2.9c-20.6-129.2-130.5-223-261.2-223s-240.6 93.8-261.1 223l-0.5 2.9 2.2 1.8c11.8 9.7 18.2 23 18.2 37.2 0 27-21.9 49-48.9 49-27.1 0-49-22-49-49 0-17 9.3-32.6 24.8-41.7l2.1-1.2 0.3-2.5c22.4-154 156.5-270.2 312-270.2s289.6 116.2 311.9 270.3l0.3 2.5 2.1 1.2c15.5 9.1 24.8 24.7 24.8 41.7 0.1 26.9-21.9 48.9-49 48.9z"  horiz-adv-x="1024" />

    
    <glyph glyph-name="edit" unicode="&#59282;" d="M802.039 805.875c72.8 0 131.836-59.036 131.836-131.836 0-29.69-9.809-57.059-26.367-79.102l-52.734-52.734-184.57 184.57 52.734 52.734c22.042 16.558 49.412 26.367 79.102 26.367zM142.859 199.42999999999995l-52.734-237.305 237.305 52.734 487.793 487.793-184.57 184.57-487.793-487.793zM679.748 506.291l-369.141-369.141-45.458 45.458 369.141 369.141 45.457-45.457z"  horiz-adv-x="1024" />

    
    <glyph glyph-name="yuyin" unicode="&#58983;" d="M636.16512-61.44l-70.80448 70.8096c107.59168 92.06272 176.03072 228.58752 176.03072 381.31712 0 145.49504-62.2848 276.1216-161.1776 367.77472L651.19232 829.44c117.01248-109.82912 190.51008-265.47712 190.51008-438.60992 0-180.44416-79.77984-341.90848-205.53728-452.27008zM445.08672 129.64352l-72.93952 72.92928c66.28352 36.64384 111.19104 107.16672 111.19104 188.25728 0 73.61536-37.04832 138.5216-93.47072 177.29024l71.62368 71.61344C535.72096 582.02624 583.68 492.11904 583.68 390.83008c0-108.65664-54.95808-204.44672-138.59328-261.18656zM253.96736 304.81408c-39.5776 0-71.66976 32.08192-71.66976 71.67488 0 39.59808 32.08704 71.67488 71.66976 71.67488 39.60832 0 71.68-32.0768 71.68-71.67488 0-39.59296-32.07168-71.67488-71.68-71.67488z"  horiz-adv-x="1024" />

    
    <glyph glyph-name="chakan" unicode="&#58942;" d="M607.839811 0.042898H214.69447A86.82497 86.82497 0 0 0 127.880338 86.929279V681.215219A86.839419 86.839419 0 0 0 214.69447 768.119662h594.28594a86.33729 86.33729 0 0 0 61.436749-25.456857c16.400473-16.400473 25.362934-38.208767 25.373771-61.411462L894.439878 288.178251v-0.10476a32.031496 32.031496 0 0 1 64.059379-0.101149L959.825022 681.110458v0.104761A150.775976 150.775976 0 0 1 808.98041 832.059831H214.69447A150.638703 150.638703 0 0 1 63.940169 681.215219v-594.28594a150.638703 150.638703 0 0 1 150.757914-150.82655h393.141728a31.970084 31.970084 0 0 1 0 63.940169zM950.544667-9.331381l-122.071536 122.071536a192.217875 192.217875 0 1 1-45.213286-45.213286l122.071536-122.071536a31.970084 31.970084 0 0 1 45.213286 45.213286z m-278.547941 105.302594a128.028448 128.028448 0 1 0 90.531332 37.497116 127.193975 127.193975 0 0 0-90.527719-37.497116zM768.004516 543.787205c17.653989 0 31.966472 14.402794 31.970084 32.056783s-14.308871 32.074845-31.966472 32.078457L256.002709 608.088618a32.020659 32.020659 0 0 1-31.970084-32.024271c0-17.657601 14.308871-32.092907 31.966472-32.092908L768.004516 543.787205zM448.000226 351.966698a31.96286 31.96286 0 1 1 0 63.940169h-192.001129a31.937573 31.937573 0 1 1 0-63.878758l192.001129-0.061411zM256.017159 224.08636a31.959247 31.959247 0 1 1 0-63.922107l127.999549-0.018062a31.941185 31.941185 0 1 1 0 63.878757z"  horiz-adv-x="1024" />

    
    <glyph glyph-name="yuzhouxingqiu-13" unicode="&#58918;" d="M72.89261827 292.86450569l8.28504493 8.28504492v33.14017976h24.85513483c8.28504494 0 8.28504494 8.28504494 8.28504494 8.28504494 0 8.28504494-8.28504494 8.28504494-8.28504494 8.28504494h-24.85513483V384c0 8.28504494-8.28504494 8.28504494-8.28504493 8.28504494-8.28504494 0-16.57008987 0-16.57008988-8.28504494v-33.14017975h-24.85513481c-8.28504494 0-16.57008987 0-16.57008988-8.28504494s8.28504494-8.28504494 8.28504494-8.28504494h24.85513483V301.14955061c8.28504494 0 16.57008987-8.28504494 24.8551348-8.28504492zM984.24756148 433.71026963c-8.28504494 0-8.28504494-8.28504494-8.28504495-8.28504494 0-289.97657283-207.12612347-439.10738173-397.68215703-439.10738172-198.84107852 0-347.97188741 149.13080889-347.9718874 347.9718874 0 157.41585383 124.27567408 281.6915279 281.6915279 281.6915279 124.27567408 0 223.69621333-99.42053925 223.69621333-223.69621333 0-99.42053925-82.85044939-173.9859437-173.9859437-173.9859437-8.28504494 0-8.28504494-8.28504494-8.28504494-8.28504494 0-8.28504494 8.28504494-8.28504494 8.28504494-8.28504494 107.70558419 0 198.84107852 91.13549431 198.84107852 198.84107851 0 132.56071902-107.70558419 248.55134815-248.55134815 248.55134816-165.70089876 0-306.54666272-140.84576395-306.54666272-306.54666272 0-207.12612347 157.41585383-364.54197728 372.82702222-364.54197728 207.12612347 0 422.53729185 165.70089876 422.53729186 463.96251654-8.28504494-16.57008987-8.28504494-8.28504494-16.57008988-8.28504494zM520.28504494 350.85982025m-91.13549433 0a91.13549431 91.13549431 0 1 1 182.27098864 0 91.13549431 91.13549431 0 1 1-182.27098864 0ZM106.03279803 491.70558419c8.28504494 0 8.28504494 0 16.57008987 8.28504495 132.56071902 248.55134815 381.11206717 289.97657283 555.09801086 198.84107851 173.9859437-91.13549431 240.2663032-289.97657283 149.13080889-463.96251654-74.56540445-140.84576395-248.55134815-190.55603358-381.11206715-115.99062914-57.99531457 24.85513482-99.42053925 74.56540445-115.99062914 132.56071901-16.57008987 57.99531457-8.28504494 115.99062914 16.57008988 165.70089877 24.85513482 41.42522469 57.99531457 74.56540445 107.70558419 91.13549433 41.42522469 16.57008987 91.13549431 8.28504494 132.56071902-16.57008989 8.28504494 0 8.28504494 0 16.57008986 8.28504495 0 8.28504494 0 8.28504494-8.28504492 16.57008988-41.42522469 24.85513482-99.42053925 24.85513482-149.13080889 16.57008987-49.71026963-16.57008987-91.13549431-57.99531457-115.99062914-99.42053926-33.14017975-57.99531457-41.42522469-124.27567408-16.57008988-190.55603358 16.57008987-66.2803595 66.2803595-115.99062914 124.27567407-149.13080888 41.42522469-24.85513482 91.13549431-33.14017975 140.84576395-33.14017976 107.70558419 0 215.41116839 57.99531457 273.40648297 165.70089876 99.42053925 182.27098864 33.14017975 397.68215703-157.41585383 497.1026963C512 814.8223368 238.59351703 773.3971121 97.74775309 508.27567408c0-8.28504494 0-8.28504494 8.28504494-16.57008989zM97.74775309 127.16360691v-24.85513481c0-8.28504494 8.28504494-8.28504494 8.28504494-8.28504493 8.28504494 0 8.28504494 8.28504494 8.28504494 8.28504493v24.85513481h24.85513481c8.28504494 0 8.28504494 8.28504494 8.28504494 8.28504494 0 8.28504494-8.28504494 8.28504494-8.28504494 8.28504495h-16.57008988v33.14017973c0 8.28504494-8.28504494 8.28504494-8.28504493 8.28504495-8.28504494 0-8.28504494-8.28504494-8.28504494-8.28504495v-33.14017973h-33.14017976c-8.28504494 0-8.28504494-8.28504494-8.28504494-8.28504495 0-8.28504494 8.28504494-8.28504494 8.28504494-8.28504494H97.74775309zM992.53260642 599.4111683900001h-24.85513481V632.55134815c0 8.28504494-8.28504494 8.28504494-8.28504494 8.28504494l-16.57008987-8.28504494v-33.14017976h-24.85513483c-8.28504494 0-8.28504494-8.28504494-8.28504494-8.28504492 0-8.28504494 8.28504494-8.28504494 8.28504494-8.28504495h24.85513483V549.70089876c0-8.28504494 8.28504494-8.28504494 8.28504493-8.28504493l8.28504494 8.28504493v24.85513482h24.85513481c8.28504494 0 8.28504494 8.28504494 8.28504494 8.28504494 16.57008987 8.28504494 8.28504494 16.57008987 0 16.57008987z"  horiz-adv-x="1024" />

    
    <glyph glyph-name="icon-yuanzhuti" unicode="&#58919;" d="M888.81652622 719.8036502699999c-9.92561493 46.7883611-49.81203513 89.1104859-114.83092878 120.96559901-70.36766435 34.47128405-163.40531769 53.45860722-261.99083691 53.45860722-98.57853326 0-191.61618659-18.98615922-261.98385095-53.45860722-65.03053539-31.85627705-104.90531271-74.17840185-114.83092878-120.96559901h-2.46481237v-671.60031459h2.46481237c9.92561493-46.79069013 49.80039225-89.11863581 114.83092878-120.97258496 70.36766435-34.46895502 163.40531769-53.45977117 261.98385095-53.45977117 98.58551922 0 191.62200861 18.99081614 261.99083691 53.45977117 65.03053539 31.85394802 104.90531271 74.18305877 114.83092878 120.97258496h2.46481237v671.60031459h-2.46481237zM753.53126229-31.02228593999996c-64.12122112-31.41268025-149.901824-48.72109056-241.53533781-48.72109056-91.62885689 0-177.40829469 17.30724637-241.53067975 48.72109056-57.99935773 28.41578496-91.2655963 65.75822051-91.2655963 102.46495005 0 36.70440163 33.26507349 74.04683719 91.2655963 102.46262215 64.12238621 31.41268025 149.901824 48.72341959 241.53067975 48.72341959 91.63351381 0 177.41411555-17.30957426 241.53533781-48.72341959 58.00052281-28.41578496 91.2655963-65.75822051 91.2655963-102.46262215 0-36.70789461-33.26507349-74.04916509-91.2655963-102.46495005z m91.2655963 199.06651136c-18.46571918 17.55756885-42.20220302 33.59456939-70.8100972 47.60918813-70.36766435 34.46895502-163.40531769 53.45744327-261.99083691 53.45744327-98.57853326 0-191.61618659-18.98848825-261.98385095-53.45744327-28.60789419-14.01461987-52.34437689-30.05161927-70.81126002-47.60918813V599.9581036100001c18.46688427-17.55291193 42.20336697-33.59922631 70.81126002-47.61384619 70.36766435-34.46895502 163.40531769-53.45860722 261.98385095-53.45860721 98.57387634 0 191.62200861 18.98848825 261.99083691 53.45860721 28.60789419 14.01461987 52.34437689 30.06093426 70.8100972 47.61384619v-431.91387819z m-91.2655963 426.05165227c-64.12122112-31.41617323-149.901824-48.71876267-241.53533781-48.71876153-91.62885689 0-177.40829469 17.3025883-241.53067975 48.71876153-57.99935773 28.41229198-91.2655963 65.75938446-91.2655963 102.46262215 0 36.70323769 33.26507349 74.05149411 91.2655963 102.4637861 64.12238621 31.41617323 149.901824 48.71876267 241.53067975 48.71876153 91.63351381 0 177.41411555-17.3025883 241.53533781-48.71876153 58.00052281-28.41229198 91.2655963-65.75938446 91.2655963-102.4637861 0-36.70207261-33.26507349-74.04800114-91.2655963-102.46262215z"  horiz-adv-x="1024" />

    
    <glyph glyph-name="icon" unicode="&#58905;" d="M594.407 39.852l50.772 50.772 101.545-101.545-50.772-50.772-101.545 101.545zM1000.614 141.396l-253.861-253.861-50.772 50.772 253.861 253.861 50.772-50.772zM511.619 881.125c-160.051 0-289.798-129.747-289.798-289.798s129.747-289.798 289.798-289.798 289.798 129.747 289.798 289.798-129.747 289.798-289.798 289.798zM511.619 384.33c-114.322 0-206.999 92.677-206.999 206.999s92.677 206.999 206.999 206.999 206.999-92.677 206.999-206.999-92.677-206.999-206.999-206.999zM511.619 301.531c96.844 0 185.915-33.262 256.432-88.972l58.89 58.89c-85.776 70.532-195.601 112.882-315.322 112.882-274.374 0-496.796-222.423-496.796-496.796h82.8c-0.001 228.645 185.351 413.999 413.998 413.999z"  horiz-adv-x="1024" />

    
    <glyph glyph-name="jiaru" unicode="&#59041;" d="M1024 384c0-282.76-229.24-512-512-512S0 101.24000000000001 0 384 229.24 896 512 896s512-229.222 512-512zM433.527 614.946c-54.8 0-107.11-47.804-107.11-75.554v-81.596c0-30.703 13.875-88.234 46.285-114.227 10.103-8.09 15.462-20.719 14.319-33.604s-8.704-24.354-20.07-30.515l-124.81-67.687a32.77 32.77 0 0 0-2.679-1.348c-3.055-1.382-6.912-3.738-9.693-5.752v-34.542h408.32s2.03 43.656 0.955 44.236L501.42 279.19399999999996c-11.4 6.229-18.893 17.749-20.002 30.703a38.772 38.772 0 0 0 14.609 33.62c33.348 26.232 42.752 84.037 42.752 114.296V539.4100000000001c0 28.416-49.408 75.537-105.25 75.537M822.34 346.453h-93.866v95.71c0 14.131-11.47 25.6-25.6 25.6s-25.6-11.469-25.6-25.6v-95.71h-93.867c-14.131 0-25.6-11.468-25.6-25.6s11.469-25.6 25.6-25.6h93.867v-92.023c0-14.131 11.468-25.6 25.6-25.6s25.6 11.469 25.6 25.6v92.023h93.866c14.131 0 25.6 11.47 25.6 25.6s-11.469 25.6-25.6 25.6z"  horiz-adv-x="1024" />

    
    <glyph glyph-name="shenhe1" unicode="&#59358;" d="M878.296 174.19100000000003c-46.44 0-109.873 19.151-161.617 48.783-53.688 30.742-85.898 67.622-86.169 98.604 0.061 3.248 0.215 12.818 0.215 31.356 0 16.501 0.199 21.611 4.737 29.458 6.563 11.356 22.691 28.21 48.276 53.432 59.269 49.791 93.269 122.302 93.269 198.947 0 69.826-27.581 135.428-77.653 184.722C649.318 868.829 582.775 896 511.997 896c-70.809 0-137.356-27.166-187.362-76.502-50.067-49.299-77.647-114.906-77.647-184.727 0-76.691 34.026-149.223 93.284-198.947 53.243-52.425 53.243-53.826 53.243-89.704v-24.082c0-31.069-32.154-68.062-86.016-98.942-51.785-29.688-115.284-48.875-161.776-48.875-51.862 0-94.052-41.601-94.052-92.747v-72.205c0-24.624 20.287-44.66 45.213-44.66h3.627v-47.949c0-24.629 20.292-44.66 45.238-44.66h732.566c24.885 0 45.197 20.031 45.279 44.66v47.949h3.56c12.225 0 23.668 4.757 32.241 13.386 8.353 8.409 12.946 19.514 12.931 31.253v72.195c0.001 51.147-42.183 92.748-94.03 92.748z m-736.157-92.748c0 1.893 1.621 3.427 3.611 3.427 62.261 0 144.676 24.558 209.955 62.578 82.722 48.241 128.282 110.236 128.282 174.558v24.087c0 27.32-1.095 50.276-14.824 76.205-12.046 22.609-32.583 44.87-66.271 78.036l-0.123 0.123c-0.9 0.87-1.836 1.708-2.777 2.486-39.709 32.819-62.486 80.86-62.486 131.811 0 94.788 78.282 171.893 174.512 171.893 96.22 0 174.497-77.105 174.497-171.893 0-50.89-22.711-98.885-62.292-131.678-0.752-0.598-1.355-1.141-1.816-1.55l-1.269-1.161c-33.294-32.819-53.596-54.609-65.499-75.775-12.849-22.839-15.361-43.586-15.361-71.693 0-17.187-0.143-26.22-0.199-29.248a22.02 22.02 0 0 1-0.066-1.673c0-64.312 45.56-126.297 128.292-174.533 65.274-38.016 147.709-62.573 210.011-62.573 1.974 0 3.581-1.534 3.581-3.427v-27.514H142.139v27.514z m734.543-154.369H147.318a5 5 0 0 0-5 5v35.001h739.363v-35.001a4.998 4.998 0 0 0-4.999-5z"  horiz-adv-x="1024" />

    
    <glyph glyph-name="lianxiren" unicode="&#58897;" d="M985.531 113.753H588.772c-19.68 0-35.506 8.18-35.506 27.514 0 19.476 15.962 29.466 35.506 29.466h396.76c19.54 0 35.368-9.99 35.505-29.466 0-19.473-15.965-27.514-35.506-27.514zM565.055 320.476c44.963-14.696 87.368-36.972 126.075-66.225 15.688-11.825 28.517-32.135 16.661-47.688-11.851-15.684-28.233-20.657-43.642-8.8-62.804 47.641-153.625 86.653-232.724 86.653-198.168 0-371.128-174.845-371.128-372.875 0-19.716-10.099-35.537-29.643-35.537-19.713 0-29.668 15.988-29.668 35.537 0 190.476 124.64 352.413 296.673 408.793-99.524 49.35-168.033 151.962-168.033 270.237 0 166.244 135.336 301.498 301.661 301.498 166.328 0 301.666-135.254 301.666-301.498 0-118.133-68.541-220.721-167.898-270.095zM429.445 837.007c-135.467 0-245.69-110.235-245.69-245.67 0-135.434 110.223-245.666 245.69-245.666 135.469 0 245.685 110.232 245.685 245.666 0 135.435-110.216 245.67-245.684 245.67z m556.086-845.111H588.772c-19.68 0-35.506 8.18-35.506 27.514 0 19.475 15.962 29.466 35.506 29.466h396.76c19.54 0 35.368-9.99 35.505-29.466 0-19.474-15.965-27.514-35.506-27.514z m-397.62-62.299h397.436c19.573 0 35.43-10.096 35.566-29.782 0-19.684-15.993-27.811-35.566-27.811H587.91c-19.713 0-35.566 8.269-35.566 27.81 0 19.687 15.988 29.783 35.566 29.783z"  horiz-adv-x="1024" />

    
    <glyph glyph-name="feijihua" unicode="&#58984;" d="M332.8 358.4h-51.2c-12.8 0-25.6-12.8-25.6-25.6s12.8-25.6 25.6-25.6h51.2c12.8 0 25.6 12.8 25.6 25.6s-12.8 25.6-25.6 25.6z m0 153.6h-51.2c-12.8 0-25.6-12.8-25.6-25.6s12.8-25.6 25.6-25.6h51.2c12.8 0 25.6 12.8 25.6 25.6S345.6 512 332.8 512z m409.6-153.6H435.2c-12.8 0-25.6-12.8-25.6-25.6s12.8-25.6 25.6-25.6h307.2c12.8 0 25.6 12.8 25.6 25.6s-12.8 25.6-25.6 25.6zM332.8 204.8h-51.2c-12.8 0-25.6-12.8-25.6-25.6s12.8-25.6 25.6-25.6h51.2c12.8 0 25.6 12.8 25.6 25.6s-12.8 25.6-25.6 25.6z m409.6 0H435.2c-12.8 0-25.6-12.8-25.6-25.6s12.8-25.6 25.6-25.6h307.2c12.8 0 25.6 12.8 25.6 25.6s-12.8 25.6-25.6 25.6z m0 307.2H435.2c-12.8 0-25.6-12.8-25.6-25.6s12.8-25.6 25.6-25.6h307.2c12.8 0 25.6 12.8 25.6 25.6S755.2 512 742.4 512zM896 742.4H768V819.2c0 12.8-12.8 25.6-25.6 25.6S716.8 832 716.8 819.2v-76.8H307.2V819.2c0 12.8-12.8 25.6-25.6 25.6S256 832 256 819.2v-76.8H128c-15.36 0-25.6-10.24-25.6-25.6v-768c0-15.36 10.24-25.6 25.6-25.6h768c15.36 0 25.6 10.24 25.6 25.6v768c0 15.36-10.24 25.6-25.6 25.6z m-25.6-768H153.6V691.2H256v-25.6c0-12.8 12.8-25.6 25.6-25.6s25.6 12.8 25.6 25.6v25.6h409.6v-25.6c0-12.8 12.8-25.6 25.6-25.6s25.6 12.8 25.6 25.6v25.6h102.4v-716.8z"  horiz-adv-x="1024" />

    
    <glyph glyph-name="ccgl-kucunrizhi-5" unicode="&#58880;" d="M323.58 612.875c20.907 0 37.801 16.894 37.801 37.801v151.331c0 20.907-16.959 37.801-37.801 37.801-20.907 0-37.801-16.894-37.801-37.801v-151.266c0-20.972 16.894-37.866 37.801-37.866zM512.647 612.875c20.907 0 37.801 16.894 37.801 37.801v151.331c0 20.907-16.894 37.801-37.801 37.801s-37.801-16.959-37.801-37.801v-151.266c0-20.972 16.959-37.866 37.801-37.866zM399.246 767.313h37.801v-75.601h-37.801v75.601zM588.378 767.313h37.801v-75.601h-37.801v75.601zM966.383 43.666v614.259c0.13 62.72-50.811 113.466-113.402 113.466h-75.601v-75.601h75.601c20.842 0 37.93-16.959 37.93-37.801v-614.322c0-20.842-17.088-37.866-37.93-37.866h-680.669c-20.777 0-37.801 17.023-37.801 37.866h-0.582l0.582 614.259c0 20.842 16.959 37.801 37.801 37.801h75.601v75.666h-75.601c-62.591 0-113.402-50.746-113.402-113.466v-614.259c0-62.85 50.811-113.466 113.402-113.466h680.669c60.779 0 109.971 47.703 112.948 107.835 0.065 0.323 0.453 0.713 0.453 1.036v3.365c0 0.453 0.13 0.842 0.13 1.295h-0.13zM701.779 612.875c20.842 0 37.801 16.894 37.801 37.801v151.331c0 20.907-16.959 37.801-37.801 37.801s-37.801-16.894-37.801-37.801v-151.266c0-20.972 16.764-37.866 37.801-37.866zM285.132 461.025h453.801c20.713 0 37.801 16.959 37.801 37.801 0 20.907-17.088 37.801-37.801 37.801h-453.801c-20.907 0-37.801-16.894-37.801-37.801 0-20.842 16.894-37.801 37.801-37.801zM738.932 350.018h-453.801c-20.907 0-37.801-16.959-37.801-37.801s16.894-37.801 37.801-37.801h453.801c20.713 0 37.801 16.959 37.801 37.801s-17.088 37.801-37.801 37.801zM738.932 156.096h-453.801c-20.907 0-37.801-16.959-37.801-37.67 0-20.907 16.894-37.93 37.801-37.93h453.801c20.713 0 37.801 17.023 37.801 37.93 0 20.777-17.088 37.67-37.801 37.67z"  horiz-adv-x="1024" />

    
    <glyph glyph-name="yuezhan" unicode="&#58937;" d="M953.6 288c-32 128-108.8 224-224 294.4-6.4 6.4-19.2 6.4-25.6 12.8 25.6 25.6 44.8 51.2 51.2 76.8 6.4 12.8 6.4 19.2 6.4 25.6l6.4 6.4c6.4 44.8 0 76.8-32 102.4-38.4 32-83.2 38.4-128 19.2-57.6 51.2-147.2 51.2-204.8 0-19.2 12.8-38.4 12.8-64 6.4-51.2-6.4-96-51.2-89.6-108.8 6.4-44.8 25.6-89.6 57.6-121.6l6.4-6.4c-147.2-76.8-249.6-224-262.4-390.4-6.4-44.8-6.4-89.6 12.8-140.8 25.6-83.2 96-134.4 172.8-134.4h544c64 0 108.8 25.6 147.2 76.8 19.2 25.6 25.6 51.2 32 83.2 6.4 6.4 6.4 19.2 6.4 44.8 0 44.8 0 102.4-12.8 153.6zM121.6 224c12.8 147.2 147.2 288 281.6 352h6.4v6.4c0 6.4 0 6.4-25.6 32-12.8 12.8-19.2 19.2-25.6 19.2-25.6 32-38.4 51.2-44.8 89.6 0 12.8-6.4 44.8 44.8 51.2h6.4c12.8 0 32-6.4 38.4-6.4 6.4-6.4 12.8-6.4 19.2-6.4h6.4l6.4 6.4c38.4 38.4 108.8 38.4 153.6 0 12.8-6.4 19.2-6.4 19.2 0 38.4 19.2 64 19.2 83.2 0 12.8-19.2 19.2-32 12.8-57.6 0-12.8-19.2-38.4-32-51.2-12.8-19.2-32-44.8-57.6-64l-6.4-6.4v-6.4c0-6.4 0-6.4 19.2-12.8 12.8-6.4 57.6-25.6 64-32 96-70.4 160-128 185.6-236.8 12.8-57.6 32-115.2 19.2-172.8-6.4-25.6-6.4-51.2-19.2-70.4-25.6-38.4-76.8-64-128-64h-480c-70.4 0-121.6 38.4-134.4 96-12.8 38.4-12.8 96-12.8 134.4zM236.8-64zM454.4 352h-89.6v-70.4h108.8v-19.2h-108.8v-70.4h108.8v-89.6h70.4v89.6h115.2v70.4h-115.2v19.2h108.8v70.4h-89.6l96 96v38.4h-64l-70.4-70.4c-6.4-6.4-6.4-12.8-12.8-12.8l-51.2 44.8-32 32v6.4h-64v-32c0-6.4 0-12.8 89.6-102.4z"  horiz-adv-x="1024" />

    
    <glyph glyph-name="fuzeren" unicode="&#58943;" d="M619.648 347.904a222.976 222.976 0 0 1 116.352 195.264 224 224 0 1 1-448 0c0-84.48 47.296-157.12 116.352-195.264A352.064 352.064 0 0 1 160 12.8c0-4.032 0.448-8 0.576-12.032h48.576c-0.192 4.096-1.216 7.936-1.216 12.032a304 304 0 0 0 608 0c0-4.096-1.024-7.936-1.216-12.032h48.576c0.128 4.032 0.576 8 0.576 12.032a351.808 351.808 0 0 1-244.224 335.104z m-276.608 195.264a168.96 168.96 0 1 0 337.92 0 168.96 168.96 0 0 0-337.92 0z"  horiz-adv-x="1024" />

    
    <glyph glyph-name="caigoudan" unicode="&#59335;" d="M866.18567111 777.79854222h-47.76846222c-16.31118222 0-29.12711111-12.81592889-29.12711111-29.12711111s12.81592889-29.12711111 29.12711111-29.12711111h12.81592889c64.07964445 0 93.20675555-29.12711111 93.20675555-93.20675555v-600.0184889c0-64.07964445-29.12711111-93.20675555-93.20675555-93.20675555h-640.79644445c-64.07964445 0-93.20675555 29.12711111-93.20675555 93.20675555v600.0184889c0 64.07964445 29.12711111 93.20675555 93.20675555 93.20675555h11.65084445c15.72864 0.58254222 27.96202667 13.39847111 27.96202667 29.12711111s-12.23338667 28.54456889-27.96202667 29.12711111h-46.60337778c-64.07964445 0-116.50844445-52.4288-116.50844445-116.50844444v-669.92355556c0-64.07964445 52.4288-116.50844445 116.50844445-116.50844444h710.70151111c64.07964445 0 116.50844445 52.4288 116.50844444 116.50844444v669.92355556c0 64.07964445-52.4288 116.50844445-116.50844444 116.50844444zM714.72469333 492.35285333h-407.77955555c-15.72864 0-29.12711111 12.81592889-29.12711111 29.12711112 0 15.72864 12.81592889 29.12711111 29.12711111 29.1271111h407.77955555c16.31118222 0 29.12711111-12.81592889 29.12711112-29.1271111s-13.39847111-29.12711111-29.12711112-29.12711112zM714.72469333 297.20120889h-407.77955555c-15.72864 0-29.12711111 12.81592889-29.12711111 29.12711111 0 15.72864 12.81592889 29.12711111 29.12711111 29.12711111h407.77955555c16.31118222 0 29.12711111-12.81592889 29.12711112-29.12711111s-13.39847111-29.12711111-29.12711112-29.12711111zM714.72469333 102.04956445000005h-407.77955555c-15.72864 0-29.12711111 12.81592889-29.12711111 29.1271111s12.81592889 29.12711111 29.12711111 29.12711112h407.77955555c16.31118222 0 29.12711111-12.81592889 29.12711112-29.12711112s-13.39847111-29.12711111-29.12711112-29.1271111zM714.72469333 777.79854222H657.63555555c-16.31118222 65.82727111-75.73048889 114.76081778-146.80064 114.76081778s-130.48945778-48.93354667-146.80064-114.76081778h-57.08913777c-16.31118222 0-29.12711111-12.81592889-29.12711111-29.12711111s12.81592889-29.12711111 29.12711111-29.12711111h407.77955555c16.31118222 0 29.12711111 12.81592889 29.12711112 29.12711111s-13.39847111 29.12711111-29.12711112 29.12711111z m-203.88977778 56.50659556c38.44778667 0 71.65269333-23.30168889 85.63370667-56.50659556H424.61866667c14.56355555 33.20490667 47.76846222 56.50659555 86.21624888 56.50659556z"  horiz-adv-x="1024" />

    
    <glyph glyph-name="accessory" unicode="&#59101;" d="M842.72 636.096a159.04 159.04 0 0 1-113.056 46.912h-0.16a158.592 158.592 0 0 1-112.768-46.656l-0.096-0.064-294.528-294.528a95.968 95.968 0 0 1 68.128-163.712c24.512 0 49.024 9.28 67.648 27.968l294.496 294.496a31.968 31.968 0 1 1-45.248 45.248l-294.496-294.496a31.872 31.872 0 0 0-45.088 0.16 31.552 31.552 0 0 0-0.192 45.088l294.496 294.496a95.04 95.04 0 0 0 67.648 28h0.096a95.52 95.52 0 0 0 67.872-28.16c18.112-18.112 28.096-42.24 28.128-67.84a95.136 95.136 0 0 0-27.968-67.776l-79.52-79.52-0.512-0.48-220.416-220.48a160.32 160.32 0 0 0-226.432-0.096A158.912 158.912 0 0 0 224 267.776c0 42.816 16.672 83.04 46.912 113.28l300.288 300.32a31.968 31.968 0 1 1-45.248 45.248l-300.288-300.288A222.848 222.848 0 0 1 160 267.776c0-59.872 23.264-116.16 65.504-158.4a223.168 223.168 0 0 1 158.336-65.44 223.68 223.68 0 0 1 158.592 65.6l311.456 311.424a31.68 31.68 0 0 1 7.104 11.072c18.496 26.56 28.64 57.92 28.608 91.04a159.104 159.104 0 0 1-46.88 113.024"  horiz-adv-x="1024" />

    
    <glyph glyph-name="activity" unicode="&#59102;" d="M800 50.912c0-1.76-0.736-2.784-0.096-2.88l-574.656-0.416C224.992 47.808 224 48.96 224 50.912v477.12h576v-477.12zM224 685.12c0 1.728 0.64 2.752 0.096 2.912H352V672a32 32 0 1 1 64 0v16h192V672a32 32 0 1 1 64 0v16h127.008a4.736 4.736 0 0 0 0.992-2.88V592H224V685.12zM799.84 752H672V768a32 32 0 0 1-64 0v-16h-192V768a32 32 0 0 1-64 0v-16H223.712C188.576 752 160 721.984 160 685.12V50.88c0-36.896 28.608-66.88 63.744-66.88h576.512c35.136 0 63.744 29.984 63.744 66.88V685.12c0 36.896-28.768 66.912-64.16 66.912zM384 336h256a32 32 0 0 1 0 64h-256a32 32 0 0 1 0-64M384 176h256a32 32 0 0 1 0 64h-256a32 32 0 0 1 0-64"  horiz-adv-x="1024" />

    
    <glyph glyph-name="activity_fill" unicode="&#59103;" d="M799.84 752H672V768a32 32 0 0 1-64 0v-16h-192V768a32 32 0 0 1-64 0v-16H223.712C188.576 752 160 721.984 160 685.088V592h704V685.088c0 36.896-28.768 66.912-64.16 66.912M640 400a32 32 0 0 0 0-64h-256a32 32 0 0 0 0 64h256z m-288-192a32 32 0 0 0 32 32h256a32 32 0 0 0 0-64h-256a32 32 0 0 0-32 32z m480 320H160v-477.12c0-36.864 28.608-66.88 63.744-66.88h576.512c35.136 0 63.744 30.016 63.744 66.88V528h-32z"  horiz-adv-x="1024" />

    
    <glyph glyph-name="add" unicode="&#59104;" d="M512 64a32 32 0 0 1 32 32v256h256a32 32 0 0 1 0 64h-256V672a32 32 0 0 1-64 0v-256H224a32 32 0 0 1 0-64h256v-256a32 32 0 0 1 32-32"  horiz-adv-x="1024" />

    
    <glyph glyph-name="addition_fill" unicode="&#59105;" d="M683.968 361.056H544v-139.968a32 32 0 0 0-64 0v139.968h-139.968a32 32 0 0 0 0 64H480v139.968a32 32 0 0 0 64 0v-139.968h139.968a32 32 0 0 0 0-64M512 768C300.256 768 128 595.712 128 384c0-211.744 172.256-384 384-384s384 172.256 384 384c0 211.712-172.256 384-384 384"  horiz-adv-x="1024" />

    
    <glyph glyph-name="addition" unicode="&#59106;" d="M512 64c-176.448 0-320 143.552-320 320S335.552 704 512 704s320-143.552 320-320-143.552-320-320-320m0 704C300.256 768 128 595.744 128 384s172.256-384 384-384 384 172.256 384 384S723.744 768 512 768M683.936 425.056H544v139.968a32 32 0 1 1-64 0v-139.968h-139.936a32 32 0 0 1 0-64H480v-139.968a32 32 0 0 1 64 0v139.968h139.968a32 32 0 0 1 0 64"  horiz-adv-x="1024" />

    
    <glyph glyph-name="addpeople_fill" unicode="&#59107;" d="M550.4 71.584c-24.736 57.536-53.216 158.016 2.88 237.376 1.216 0.96 2.08 1.792 3.072 2.656A176.864 176.864 0 0 1 627.2 438.4c0.512 5.568 1.216 11.072 1.216 16.768V559.936C628.416 657.024 552.704 736 459.68 736c-93.024 0-168.736-78.976-168.736-176.064v-104.736c0-60.16 29.12-113.312 73.344-145.088a911.264 911.264 0 0 1-158.08-53.28C179.84 245.76 160 214.912 160 185.088v-113.76c0-3.52 0.544-6.976 1.632-10.304 8.64-26.432 31.936-44.16 58.016-44.16h309.664a29.76 29.76 0 0 1 19.68 7.936c6.592 5.888 11.04 14.304 11.04 24.064 0 0.768-0.448 2.048-0.704 3.136a69.664 69.664 0 0 1-8.928 19.584M804.48 170.752h-39.296V128c0-12.384-9.6-22.4-21.504-22.4a21.952 21.952 0 0 0-21.504 22.4v42.752H681.6a21.952 21.952 0 0 0-21.504 22.4c0 12.384 9.6 22.4 21.504 22.4h40.576V256c0 12.384 9.6 22.4 21.504 22.4 11.904 0 21.504-10.016 21.504-22.4v-40.448h39.296c11.904 0 21.504-10.016 21.504-22.4 0-12.384-9.6-22.4-21.504-22.4m-16.064 207.296A176.64 176.64 0 0 1 743.68 384c-101.632 0-184.32-86.08-184.32-192 0-105.888 82.688-192 184.32-192 15.456 0 30.4 2.24 44.736 5.952C868.48 26.88 928 102.208 928 192s-59.52 165.152-139.584 186.048"  horiz-adv-x="1024" />

    
    <glyph glyph-name="addpeople" unicode="&#59108;" d="M352.416 455.2v104.736C352.416 621.76 400.512 672 459.68 672s107.296-50.24 107.296-112.064v-104.736c0-61.792-48.128-112.064-107.296-112.064-59.168 0-107.264 50.24-107.264 112.064m176.896-374.336l-307.84 0.768v103.456c0 4.224 4.608 11.104 8.608 12.768 1.312 0.64 134.912 61.536 237.12 61.536h31.648c16.96 0 30.72 14.336 30.72 32 0 1.216-0.544 2.24-0.672 3.424 58.56 27.616 99.52 89.056 99.52 160.384v104.736C628.416 657.024 552.736 736 459.68 736c-93.024 0-168.704-78.976-168.704-176.064v-104.736c0-60.16 29.088-113.312 73.312-145.088a912.416 912.416 0 0 1-158.08-53.28C179.84 245.76 160 214.912 160 185.088v-113.76c0-3.52 0.544-6.976 1.632-10.304 8.64-26.432 31.936-44.16 58.048-44.16h309.632c16.96 0 30.72 14.336 30.72 32s-13.76 32-30.72 32M743.68 64c-67.776 0-122.88 57.408-122.88 128s55.104 128 122.88 128 122.88-57.408 122.88-128-55.104-128-122.88-128m0 320c-101.664 0-184.32-86.112-184.32-192s82.656-192 184.32-192c101.664 0 184.32 86.112 184.32 192s-82.656 192-184.32 192M804.48 215.552h-39.296V256c0 12.384-9.6 22.4-21.504 22.4a21.952 21.952 0 0 1-21.504-22.4v-40.448H681.6a21.952 21.952 0 0 1-21.504-22.4c0-12.384 9.6-22.4 21.504-22.4h40.576V128c0-12.384 9.6-22.4 21.504-22.4a21.952 21.952 0 0 1 21.504 22.4v42.752h39.296a21.952 21.952 0 0 1 21.504 22.4c0 12.384-9.6 22.4-21.504 22.4"  horiz-adv-x="1024" />

    
    <glyph glyph-name="addressbook_fill" unicode="&#59109;" d="M896 448h-128a32 32 0 0 1 0-64h128a32 32 0 0 1 0 64M896 576h-128a32 32 0 0 1 0-64h128a32 32 0 0 1 0 64M768 640h128a32 32 0 0 1 0 64h-128a32 32 0 0 1 0-64M781.76 256c-5.12 2.272-97.216 42.56-198.72 62.752 11.808 9.632 22.144 20.928 31.104 33.248a174.88 174.88 0 0 1 33.792 103.2v104.768A176.32 176.32 0 0 1 576 701.664 174.368 174.368 0 0 1 472.192 736c-96.928 0-175.776-78.976-175.776-176.032v-104.768c0-56.544 26.88-106.816 68.384-139.072-96.48-20.832-181.344-57.824-185.536-59.712C150.016 244.672 128 211.808 128 180v-131.712l1.728-5.024c9.504-27.904 35.136-46.624 63.776-46.624h572.992c33.28 0 60.832 24.864 64.96 56.96l0.544 126.4c0 15.232-5.184 30.72-13.664 44-9.088 14.272-21.952 26.016-36.576 32"  horiz-adv-x="1024" />

    
    <glyph glyph-name="addressbook" unicode="&#59110;" d="M896 576h-128a32 32 0 0 1 0-64h128a32 32 0 0 1 0 64M896 448h-128a32 32 0 0 1 0-64h128a32 32 0 0 1 0 64M768 640h128a32 32 0 0 1 0 64h-128a32 32 0 0 1 0-64M768 60.64H193.504c-0.416 0-0.96 0.256-1.504 0.672v118.688c0 5.856 5.92 14.912 12.096 17.472 1.568 0.64 156.896 68.64 275.904 68.64 118.752 0 274.368-67.968 276.672-68.992 5.312-2.208 11.328-11.328 11.328-17.12v-119.36z m-407.584 394.56v104.768a112 112 0 0 0 111.776 112 112 112 0 0 0 111.744-112v-104.768a112 112 0 0 0-111.744-112.064 112.064 112.064 0 0 0-111.776 112.064z m421.344-199.232c-5.12 2.272-97.216 42.56-198.72 62.752a175.904 175.904 0 0 1 64.896 136.448v104.768C647.936 656.992 569.088 736 472.192 736c-96.928 0-175.776-78.976-175.776-176v-104.8c0-56.544 26.88-106.816 68.384-139.072-96.48-20.8-181.344-57.824-185.536-59.712C150.016 244.64 128 211.776 128 179.968v-131.712l1.728-5.024c9.504-27.904 35.136-46.624 63.776-46.624h572.992c33.28 0 60.832 24.864 64.96 56.96l0.544 126.4c0 31.584-21.952 64.416-50.24 76z"  horiz-adv-x="1024" />

    
    <glyph glyph-name="barrage_fill" unicode="&#59111;" d="M544 448H288a32 32 0 1 0 0 64h256a32 32 0 1 0 0-64m-288-96a32 32 0 0 0 32 32h128a32 32 0 1 0 0-64H288a32 32 0 0 0-32 32m32-96h128a32 32 0 1 0 0-64H288a32 32 0 1 0 0 64M831.936 704H192.064A64 64 0 0 1 128 640.224v-512.448A64 64 0 0 1 192.064 64h639.872A64 64 0 0 1 896 127.776V640.224A64 64 0 0 1 831.936 704"  horiz-adv-x="1024" />

    
    <glyph glyph-name="barrage" unicode="&#59112;" d="M288 320h128a32 32 0 0 1 0 64H288a32 32 0 0 1 0-64M288 192h128a32 32 0 0 1 0 64H288a32 32 0 0 1 0-64M288 448h256a32 32 0 0 1 0 64H288a32 32 0 0 1 0-64M831.936 128L192 127.776V640.224L192.096 640 832 640.224 831.936 128z m0 576H192.096A64 64 0 0 1 128 640.224v-512.448A64 64 0 0 1 192.096 64h639.84A64 64 0 0 1 896 127.776V640.224A64 64 0 0 1 831.936 704z"  horiz-adv-x="1024" />

    
    <glyph glyph-name="browse_fill" unicode="&#59113;" d="M376.16 344.064v71.872a128.16 128.16 0 0 0 128 128.064c70.592 0 128-57.44 128-128.064v-71.872a128.16 128.16 0 0 0-128-128.064c-70.592 0-128 57.44-128 128.064m494.88 80.96c-2.048 4.704-26.72 59.936-78.88 116.928C733.696 605.856 640.576 672 504.16 672s-229.6-66.24-288-130.016c-52.096-56.864-76.608-111.68-78.208-115.488-12.736-24.896-13.056-60.896-2.016-82.816 0.48-1.248 24.32-60.96 80.224-121.44 57.984-62.72 150.464-126.24 288-126.24 137.504 0 230.08 63.68 288 126.208 55.872 60.32 79.52 119.616 79.552 119.776 11.744 24.896 10.88 61.664-0.672 83.008"  horiz-adv-x="1024" />

    
    <glyph glyph-name="browse" unicode="&#59114;" d="M812.896 367.104C812.16 365.056 730.816 160 504.16 160c-225.44 0-305.248 198.24-309.696 209.376-3.2 6.4-2.944 21.28 1.376 29.92C196.736 401.344 287.776 608 504.16 608c215.296 0 304.384-199.776 309.248-210.752 3.296-6.176 3.552-21.344-0.512-30.144m58.112 57.888C866.72 435.072 762.24 672 504.16 672 246.08 672 141.344 434.56 137.92 426.432c-12.704-24.896-13.056-60.896-1.984-82.752 0.96-2.496 98.048-247.68 368.224-247.68 270.144 0 367.552 245.696 367.552 246.016 11.712 24.832 10.912 61.6-0.704 82.976M568.16 344.032a64.064 64.064 0 0 0-64-64.032c-35.296 0-64 28.704-64 64.032v71.904c0 35.328 28.704 64.064 64 64.064s64-28.736 64-64.064v-71.904z m-64 199.968c-70.592 0-128-57.44-128-128.064v-71.904a128.16 128.16 0 0 1 128-128.032c70.592 0 128 57.44 128 128.032v71.904a128.16 128.16 0 0 1-128 128.064z"  horiz-adv-x="1024" />

    
    <glyph glyph-name="brush" unicode="&#59115;" d="M766.88 460.736l-176.608 176.64 66.72 66.752 176.544-176.704-66.656-66.688zM401.44 95.04L224.64 271.808l0.256-0.064L545.024 592.096l176.64-176.64L401.376 95.04zM224 94.08v87.872l87.712-87.68-87.68-0.192z m655.04 478.528l-176.768 176.736A60.96 60.96 0 0 1 656.96 768a63.968 63.968 0 0 1-45.12-18.848L179.584 316.992a63.936 63.936 0 0 1-17.92-54.368c-0.768-2.688-1.696-5.312-1.696-8.256v-160.288c0-35.136 28.576-63.68 63.712-63.68h160.32c2.88 0 5.504 0.896 8.192 1.632 2.976-0.416 5.952-0.832 8.96-0.832 16.416 0 32.896 6.272 45.44 18.816l432.16 432.16a64 64 0 0 1 0.224 90.432z"  horiz-adv-x="1024" />

    
    <glyph glyph-name="brush_fill" unicode="&#59116;" d="M879.04 572.64l-176.8 176.768a64.032 64.032 0 0 1-90.464-0.224l-67.36-67.392 44.864-44.64 0.96 0.192h0.032l176.64-176.576 30.304-30.4 14.848-14.88 66.72 66.72a64 64 0 0 1 0.224 90.432M325.888 80.64l-13.6 13.632-88.32 88.64-14.08 14.144-40.704 43.392L160 250.24v-156.128c0-35.136 28.576-63.68 63.68-63.68h154.208l-11.648 11.2-40.352 38.976zM545.024 592.128l-45.248 45.056L179.616 317.024l45.248-45.248 176.544-176.704 45.184-45.024 318.976 318.976-43.936 46.496z"  horiz-adv-x="1024" />

    
    <glyph glyph-name="businesscard_fill" unicode="&#59117;" d="M783.85303703 500.50844445h-233.01688888a38.83614815 38.83614815 0 1 0 0 77.6722963h233.01688888a38.83614815 38.83614815 0 1 0 0-77.6722963m0-155.3445926h-155.34459258a38.83614815 38.83614815 0 1 0 0 77.6722963h155.34459258a38.83614815 38.83614815 0 1 0 0-77.6722963m0-155.3445926h-155.34459258a38.83614815 38.83614815 0 1 0 0 77.6722963h155.34459258a38.83614815 38.83614815 0 1 0 0-77.6722963m-619.32005451 21.2822092L162.47466667 217.15990754999996v67.84675082c0 25.165824 16.19467378 49.283072 39.41869036 58.64258371 1.24275675 0.58254222 25.165824 10.95179378 57.39982697 20.62199467a107.69263882 107.69263882 0 0 0-15.06842548 54.2929351V469.43952592c0 47.61311763 30.95241008 87.73085867 73.59450073 102.41092267 11.06830222 3.80594252 22.71914667 6.33029215 35.03020564 6.33029216a108.93539555 108.93539555 0 0 0 108.62470636-108.74121483v-50.87535407c0-19.10738489-5.35938845-36.81666845-14.05868562-52.4288a586.42583703 586.42583703 0 0 0 65.12822045-22.9133274c15.6509677-6.48563675 27.96202667-20.50548622 33.98162962-36.89434075 2.56318578-6.83516208 4.31081245-13.98101333 4.31081245-21.32104533l-0.1553446-61.36111407a55.14733037 55.14733037 0 0 0-54.95314963-50.99186252H217.62199703a56.23474252 56.23474252 0 0 0-53.05017836 38.44778667M900.28380918 772.36148148H123.63851852A77.71113245 77.71113245 0 0 1 45.96622222 694.96103822v-621.92207644C45.96622222 30.396871110000006 80.91875555-4.361481479999952 123.75502697-4.361481479999952h776.52878221A77.6722963 77.6722963 0 0 1 978.03377778 73.03896178000002V694.96103822A77.6722963 77.6722963 0 0 1 900.28380918 772.36148148"  horiz-adv-x="1024" />

    
    <glyph glyph-name="businesscard" unicode="&#59118;" d="M783.85303703 578.18074075h-233.01688888a38.83614815 38.83614815 0 1 1 0-77.6722963h233.01688888a38.83614815 38.83614815 0 1 1 0 77.6722963M783.85303703 422.83614815h-155.34459258a38.83614815 38.83614815 0 1 1 0-77.6722963h155.34459258a38.83614815 38.83614815 0 1 1 0 77.6722963M783.85303703 267.49155555000004h-155.34459258a38.83614815 38.83614815 0 1 1 0-77.6722963h155.34459258a38.83614815 38.83614815 0 1 1 0 77.6722963M900.28380918 73.31081482000002L123.63851852 73.03896178000002 123.75502697 694.68918518 900.36148148 694.96103822l0.27185304-621.61138725-0.38836149-0.03883615m0 699.05066666H123.79386311A77.71113245 77.71113245 0 0 1 45.96622222 694.96103822v-621.92207644C45.96622222 30.396871110000006 80.87991941-4.361481479999952 123.75502697-4.361481479999952h776.52878221A77.6722963 77.6722963 0 0 1 978.03377778 73.03896178000002V694.96103822A77.6722963 77.6722963 0 0 1 900.28380918 772.36148148M473.16385185 250.32597808000003H240.14696297v25.165824c25.04931555 10.09739852 77.47811555 27.96202667 116.50844444 27.96202667 38.52545897 0 90.60473363-17.59277511 116.50844444-28.00086283v-25.12698784zM321.89705482 469.43952592c0 17.43743052 13.631488 31.06891852 30.95241007 31.06891853a31.06891852 31.06891852 0 0 0 30.95241008-31.06891853v-50.87535407a30.68055703 30.68055703 0 0 0-30.95241008-31.10775467 31.06891852 31.06891852 0 0 0-30.95241007 31.06891852V469.43952592z m190.64665126-126.21748147a586.42583703 586.42583703 0 0 1-65.12822045 22.9133274c8.69929718 15.61213155 14.05868563 33.32141511 14.05868562 52.4288V469.43952592c0 59.96301275-48.73936592 108.74121482-108.62470636 108.74121483a108.81888711 108.81888711 0 0 1-108.62470637-108.74121483v-50.87535407c0-19.8452717 5.74774992-38.25360592 15.06842548-54.2929351-32.23400297-9.70903703-56.15707022-20.03945245-57.39982697-20.62199467A64.50684208 64.50684208 0 0 1 162.47466667 284.96782222v-67.84675081l2.05831585-6.05843911c7.84490192-23.02983585 29.16594725-38.44778667 53.05017837-38.44778667h278.14449303a55.14733037 55.14733037 0 0 1 54.95314963 50.99186252L550.83614815 284.96782222c0 24.97164325-16.11700148 49.05005511-38.29244207 58.21538608z"  horiz-adv-x="1024" />

    
    <glyph glyph-name="camera_fill" unicode="&#59119;" d="M528 512c88.224 0 160-71.776 160-160s-71.776-160-160-160-160 71.776-160 160 71.776 160 160 160m320 105.728a62.688 62.688 0 0 1-15.968 2.24h-104.832L704.704 672l-6.688 15.488C686.016 715.136 654.272 736 624.128 736h-192.288c-30.144 0-61.888-20.864-73.856-48.544L351.296 672l-22.496-52H223.968c-5.536 0-10.848-0.96-15.968-2.272a64.16 64.16 0 0 1-48-62.08v-439.36c0-29.888 20.448-54.816 48-62.016 5.12-1.312 10.432-2.272 15.968-2.272h608.064c5.536 0 10.848 0.96 15.968 2.24a64.224 64.224 0 0 1 48 62.048v439.36c0 29.92-20.48 54.912-48 62.08"  horiz-adv-x="1024" />

    
    <glyph glyph-name="camera" unicode="&#59120;" d="M224 116.288l-0.128 439.712h146.976l45.856 106.048c1.856 4.256 10.496 9.952 15.136 9.952h192.288c4.768 0 13.248-5.6 15.136-9.92l45.856-106.08 146.88-0.32 0.032-439.68L224 116.32zM832.032 620h-104.832l-29.184 67.52C686.016 715.104 654.272 736 624.128 736h-192.288c-30.144 0-61.888-20.864-73.856-48.544l-29.184-67.456H223.968A64.224 64.224 0 0 1 160 555.68v-439.36c0-35.488 28.672-64.32 63.968-64.32h608.064A64.192 64.192 0 0 1 896 116.32v439.36c0 35.456-28.704 64.32-63.968 64.32zM528 256c-52.928 0-96 43.072-96 96s43.072 96 96 96 96-43.072 96-96-43.072-96-96-96m0 256c-88.224 0-160-71.776-160-160s71.776-160 160-160 160 71.776 160 160-71.776 160-160 160"  horiz-adv-x="1024" />

    
    <glyph glyph-name="clock_fill" unicode="&#59121;" d="M480 363.648v199.104a32 32 0 0 0 64 0v-185.856l97.92-97.92a32 32 0 0 0-45.248-45.248l-107.296 107.296a31.904 31.904 0 0 0-9.376 22.624m32 359.104c-194.08 0-352-157.92-352-352 0-101.888 43.744-193.504 113.152-257.824a31.36 31.36 0 0 1-13.248-7.552l-58.528-58.528a31.968 31.968 0 1 1 45.248-45.248l58.528 58.56a31.52 31.52 0 0 1 8.832 19.84A349.664 349.664 0 0 1 512 18.72c71.328 0 137.664 21.44 193.152 58.048a31.04 31.04 0 0 1 8.224-16.64l58.528-58.56a31.904 31.904 0 0 1 45.248 0 32 32 0 0 1 0 45.248l-58.528 58.56a32 32 0 0 1-9.28 6.144C819.616 175.936 864 268.16 864 370.752c0 194.08-157.92 352-352 352M182.624 609.6l90.528 90.56a32 32 0 0 1-45.248 45.216L137.376 654.848A31.968 31.968 0 1 1 182.624 609.6M883.872 668.128l-90.496 90.496a31.968 31.968 0 1 1-45.248-45.248l90.496-90.496a31.904 31.904 0 0 1 45.248 0 31.968 31.968 0 0 1 0 45.248"  horiz-adv-x="1024" />

    
    <glyph glyph-name="clock" unicode="&#59122;" d="M512 82.752c-158.784 0-288 129.216-288 288s129.216 288 288 288 288-129.216 288-288-129.216-288-288-288m0 640c-194.08 0-352-157.92-352-352 0-101.856 43.744-193.472 113.152-257.824a31.04 31.04 0 0 1-13.248-7.552l-58.528-58.56a31.968 31.968 0 1 1 45.248-45.216l58.528 58.528a31.584 31.584 0 0 1 8.832 19.84A349.664 349.664 0 0 1 512 18.752c71.328 0 137.664 21.44 193.152 58.048a31.04 31.04 0 0 1 8.224-16.672l58.528-58.56a31.904 31.904 0 0 1 45.248 0 32 32 0 0 1 0 45.28l-58.528 58.528a31.36 31.36 0 0 1-9.28 6.176C819.616 175.936 864 268.16 864 370.752c0 194.08-157.92 352-352 352M544 376.896v185.856a32 32 0 0 1-64 0v-199.104c0-8.48 3.36-16.64 9.376-22.624l107.296-107.296a31.904 31.904 0 0 1 45.248 0 32 32 0 0 1 0 45.248L544 376.896zM182.624 609.6l90.528 90.56a32 32 0 0 1-45.248 45.216L137.376 654.848A31.968 31.968 0 1 1 182.624 609.6M883.872 668.128l-90.496 90.496a31.968 31.968 0 1 1-45.248-45.248l90.496-90.496a31.904 31.904 0 0 1 45.248 0 31.968 31.968 0 0 1 0 45.248"  horiz-adv-x="1024" />

    
    <glyph glyph-name="close" unicode="&#59123;" d="M544.448 396.8l284.576 284.576a32 32 0 0 1-45.248 45.248L499.2 442.048 214.624 726.624a32 32 0 0 1-45.248-45.248l284.576-284.576-284.576-284.576a32 32 0 0 1 45.248-45.248l284.576 284.576 284.576-284.576a31.904 31.904 0 0 1 45.248 0 32 32 0 0 1 0 45.248L544.448 396.8z"  horiz-adv-x="1024" />

    
    <glyph glyph-name="collection_fill" unicode="&#59124;" d="M877.632 439.2c14.976 14.72 20.384 32.96 14.816 49.984-5.536 17.024-20.608 28.544-41.344 31.584l-190.24 27.84c-6.976 1.024-18.464 9.472-21.6 15.904l-85.12 173.696c-9.28 18.944-24.896 29.76-42.88 29.76-17.952 0-33.6-10.816-42.816-29.76l-85.12-173.696c-3.104-6.432-14.592-14.848-21.6-15.904l-190.24-27.84c-20.704-3.04-35.776-14.56-41.344-31.584-5.568-17.024-0.16-35.232 14.816-49.984l137.696-135.232c5.088-4.992 9.536-18.816 8.32-25.92l-32.48-190.912c-3.552-20.832 2.752-38.816 17.344-49.344 7.52-5.44 16.224-8.16 25.472-8.16 8.576 0 17.6 2.336 26.56 7.04l170.176 90.176c6.048 3.2 20.448 3.2 26.528 0l170.144-90.112c18.528-9.856 37.504-9.44 52.064 1.056 14.56 10.528 20.864 28.48 17.344 49.28l-32.48 190.976c-1.28 7.104 3.2 20.928 8.32 25.92l137.664 135.232z"  horiz-adv-x="1024" />

    
    <glyph glyph-name="collection" unicode="&#59125;" d="M695.104 349.632c-20.16-19.808-31.328-54.4-26.56-82.368l26.976-158.56-140.992 74.688c-25.056 13.248-61.408 13.28-86.464 0l-140.992-74.656 27.008 158.56c4.736 27.904-6.464 62.528-26.56 82.336l-114.56 112.512 158.08 23.136c27.936 4.096 57.312 25.6 69.792 51.04l70.464 143.872 70.464-143.872c12.512-25.472 41.856-46.944 69.824-51.04l158.08-23.136-114.56-112.512z m182.528 89.536c14.976 14.72 20.384 32.96 14.816 50.016-5.536 17.024-20.64 28.512-41.344 31.552l-190.272 27.872c-6.944 1.024-18.432 9.472-21.6 15.872l-85.088 173.76c-9.248 18.88-24.896 29.76-42.88 29.76-17.92 0-33.568-10.88-42.848-29.76l-85.056-173.76c-3.136-6.4-14.656-14.848-21.632-15.872l-190.272-27.84c-20.704-3.072-35.744-14.56-41.28-31.584-5.6-17.024-0.192-35.264 14.784-50.016L282.624 304c5.12-5.024 9.6-18.848 8.352-25.92l-32.512-190.944c-3.52-20.8 2.784-38.816 17.344-49.344 7.52-5.44 16.256-8.16 25.472-8.16 8.576 0 17.632 2.368 26.56 7.104l170.176 90.144c6.08 3.2 20.48 3.2 26.56 0l170.144-90.144c18.496-9.824 37.504-9.408 52.032 1.056 14.56 10.56 20.896 28.512 17.376 49.312l-32.512 190.976c-1.216 7.072 3.232 20.896 8.32 25.92l137.696 135.2z"  horiz-adv-x="1024" />

    
    <glyph glyph-name="computer_fill" unicode="&#59126;" d="M221.216 308H160v-75.712c0-35.456 27.424-64.288 61.184-64.288h260.192v-52h-91.808c-16.896 0-30.624-14.336-30.624-32 0-17.696 13.728-32 30.624-32h244.864c16.896 0 30.624 14.304 30.624 32 0 17.664-13.728 32-30.624 32h-91.808V168h260.192c33.76 0 61.184 28.832 61.184 64.288v75.712H221.216zM802.816 736H221.184C187.424 736 160 707.136 160 671.68v-299.68h704V671.68C864 707.136 836.576 736 802.816 736"  horiz-adv-x="1024" />

    
    <glyph glyph-name="computer" unicode="&#59127;" d="M221.216 232.32v75.68h581.6v-76l-581.6 0.32zM802.784 671.68v-299.68H221.248V672l581.568-0.32z m0 64.32H221.216C187.424 736 160 707.136 160 671.68v-439.36c0-35.488 27.424-64.32 61.184-64.32h260.192v-52h-91.84c-16.864 0-30.592-14.336-30.592-32 0-17.696 13.728-32 30.624-32h244.864c16.896 0 30.624 14.304 30.624 32 0 17.664-13.728 32-30.624 32h-91.84V168h260.224c33.76 0 61.184 28.832 61.184 64.32V671.68C864 707.136 836.576 736 802.816 736z"  horiz-adv-x="1024" />

    
    <glyph glyph-name="coordinates_fill" unicode="&#59128;" d="M384 479.968c0 70.592 57.408 128 128 128s128-57.408 128-128-57.408-128-128-128-128 57.408-128 128m128.32 288h-0.64c-158.624-0.16-287.68-129.312-287.68-288 0-80.512 64.032-195.008 126.72-288a2026.4 2026.4 0 0 1 116.512-155.584 57.92 57.92 0 0 1 44.8-21.856h0.096a57.504 57.504 0 0 1 44.512 21.696 2024.256 2024.256 0 0 1 116.64 155.744c62.688 92.992 126.72 207.488 126.72 288 0 158.688-129.056 287.84-287.68 288"  horiz-adv-x="1024" />

    
    <glyph glyph-name="coordinates" unicode="&#59129;" d="M512 82.688C445.568 163.072 288 375.936 288 480c0 123.488 100.48 224 224 224s224-100.512 224-224c0-103.776-156.96-316.064-224-397.344M512 768c-158.784 0-288-129.184-288-288 0-148.416 217.696-413.088 243.232-443.616a57.92 57.92 0 0 1 44.8-21.856h0.096a57.6 57.6 0 0 1 44.512 21.696C581.536 65.984 800 331.328 800 480c0 158.816-129.216 288-288 288M512 416c-35.296 0-64 28.704-64 64s28.704 64 64 64 64-28.704 64-64-28.704-64-64-64m0 192c-70.592 0-128-57.408-128-128s57.408-128 128-128 128 57.408 128 128-57.408 128-128 128"  horiz-adv-x="1024" />

    
    <glyph glyph-name="coupons_fill" unicode="&#59130;" d="M608 320a22.4 22.4 0 0 0 0-44.8h-73.6v-19.2a22.4 22.4 0 1 0-44.8 0v19.2H416a22.4 22.4 0 1 0 0 44.8h73.6v51.2H416a22.4 22.4 0 1 0 0 44.8h64.384l-0.224 0.16-64 64a22.4 22.4 0 0 0 31.68 31.68l64-64 0.16-0.224 0.16 0.224 64 64a22.368 22.368 0 1 0 31.68-31.68l-64-64-0.224-0.16H608a22.4 22.4 0 0 0 0-44.8h-73.6V320H608z m256 160h32V640.224A64 64 0 0 1 831.936 704H192.064A64 64 0 0 1 128 640.224V480h32c52.928 0 96-43.072 96-96s-43.072-96-96-96H128v-160.224A64 64 0 0 1 192.064 64h639.872A64 64 0 0 1 896 127.776V288h-32c-52.928 0-96 43.072-96 96s43.072 96 96 96z"  horiz-adv-x="1024" />

    
    <glyph glyph-name="coupons" unicode="&#59131;" d="M832 227.2l-0.096-99.2L192 127.808V227.2c72.96 14.848 128 79.52 128 156.768a160.288 160.288 0 0 1-128 156.8L192.128 640 832 640.224V540.8a160.32 160.32 0 0 1-128-156.8 160.32 160.32 0 0 1 128-156.8m32 252.8h32V640.224A64 64 0 0 1 831.904 704H192.096a64 64 0 0 1-64.128-63.776V480h32c52.96 0 96-43.04 96-96 0-52.928-43.04-96-96-96H128v-160.192A64 64 0 0 1 192.064 64h639.84A64 64 0 0 1 896 127.808V288h-32c-52.928 0-96 43.072-96 96 0 52.96 43.072 96 96 96M608 371.2a22.4 22.4 0 1 1 0 44.8h-64.384c0.064 0.096 0.16 0.096 0.224 0.16l64 64a22.4 22.4 0 1 1-31.68 31.68l-64-64-0.16-0.224-0.16 0.256-64 64a22.4 22.4 0 0 1-31.68-31.712l64-64c0.064-0.064 0.16-0.064 0.224-0.16H416a22.4 22.4 0 1 1 0-44.8h73.6V320H416a22.4 22.4 0 1 1 0-44.8h73.6v-19.2a22.4 22.4 0 0 1 44.8 0v19.2H608a22.4 22.4 0 1 1 0 44.8h-73.6v51.2H608z"  horiz-adv-x="1024" />

    
    <glyph glyph-name="createtask_fill" unicode="&#59132;" d="M680.608 512h-224a32 32 0 1 0 0 64h224a32 32 0 1 0 0-64m0-160h-224a32 32 0 1 0 0 64h224a32 32 0 1 0 0-64m0-160h-224a32 32 0 1 0 0 64h224a32 32 0 1 0 0-64m-328.64 320a32 32 0 1 0 0 64 32 32 0 0 0 0-64m0-160a32.032 32.032 0 0 0 0 64 32 32 0 0 0 0-64m0-160a32.032 32.032 0 0 0 0 64 32 32 0 0 0 0-64M799.872 736H223.68A63.776 63.776 0 0 1 160 672.256v-576.512C160 60.608 188.608 32 223.776 32h576.512a63.776 63.776 0 0 1 63.68 63.744V672.256A64 64 0 0 1 799.872 736"  horiz-adv-x="1024" />

    
    <glyph glyph-name="createtask" unicode="&#59133;" d="M544 95.872l-320-0.16-0.064 96.32-0.064 160-0.032 64-0.096 160-0.032 96h576.128L800 672.224 800.256 96 544 95.872zM799.84 736H223.712A63.808 63.808 0 0 1 160 672.256v-576.544c0-35.136 28.608-63.68 63.744-63.68h576.512A63.808 63.808 0 0 1 864 95.68V672.256A64 64 0 0 1 799.84 736zM680.608 576h-224a32 32 0 0 1 0-64h224a32 32 0 0 1 0 64M680.608 416h-224a32 32 0 0 1 0-64h224a32 32 0 0 1 0 64M680.608 256h-224a32 32 0 0 1 0-64h224a32 32 0 0 1 0 64M352 576a32 32 0 1 1 0-64 32 32 0 0 1 0 64M352 416a32 32 0 1 1 0-64 32 32 0 0 1 0 64M352 256a32 32 0 1 1 0-64 32 32 0 0 1 0 64"  horiz-adv-x="1024" />

    
    <glyph glyph-name="customerservice_fill" unicode="&#59134;" d="M799.68 480H736v64.16C736 667.584 635.52 768 512 768s-224-100.416-224-223.84V480H224.32C188.864 480 160 451.328 160 416.096v-192.192C160 188.672 188.864 160 224.32 160h94.784c0.288 0 0.576-0.192 0.896-0.192 0.32 0 0.608 0.192 0.928 0.192h31.04V544.16A160.128 160.128 0 0 0 512 704c88.256 0 160-71.712 160-159.84v-384.352c0-34.112-8.32-58.24-25.504-73.696-16.576-14.848-42.912-22.816-78.144-24.256A63.776 63.776 0 0 1 512 96a64 64 0 0 1 0-128c22.816 0 42.72 12 54.048 29.984 53.312 1.408 94.24 14.528 123.168 40.544 31.04 27.872 46.784 68.704 46.784 121.28V160h63.68A64.192 64.192 0 0 1 864 223.904v192.192A64.192 64.192 0 0 1 799.68 480"  horiz-adv-x="1024" />

    
    <glyph glyph-name="customerservice" unicode="&#59135;" d="M799.68 224H736v192h63.68l0.32 0.096L799.68 224zM288 223.968l-64-0.064L224.32 416H288V223.968zM799.68 480H736v64.192C736 667.584 635.52 768 512 768s-224-100.416-224-223.808V480H224.32C188.864 480 160 451.328 160 416.096v-192.192C160 188.672 188.864 160 224.32 160h94.848c0.288 0 0.544-0.16 0.832-0.16 0.32 0 0.544 0.16 0.864 0.16H352V544.192A160.064 160.064 0 0 0 512 704c88.224 0 160-71.68 160-159.808V159.84c0-34.144-8.352-58.24-25.536-73.664-16.544-14.88-42.912-22.944-78.144-24.384A63.68 63.68 0 0 1 512 96a64 64 0 0 1 0-128c22.816 0 42.72 12.032 54.048 29.984 53.312 1.44 94.208 14.56 123.2 40.576 31.04 27.872 46.72 68.672 46.72 121.28V160h63.744A64.16 64.16 0 0 1 864 223.904v192.192A64.16 64.16 0 0 1 799.68 480z"  horiz-adv-x="1024" />

    
    <glyph glyph-name="delete_fill" unicode="&#59136;" d="M649.824 291.424a31.968 31.968 0 1 0-45.248-45.248L505.6 345.152l-98.976-98.976a31.904 31.904 0 0 0-45.248 0 32 32 0 0 0 0 45.248l98.976 98.976-98.976 98.976a32 32 0 0 0 45.248 45.248l98.976-98.976 98.976 98.976a32 32 0 0 0 45.248-45.248L550.848 390.4l98.976-98.976zM512 768C300.288 768 128 595.712 128 384c0-211.744 172.288-384 384-384 211.744 0 384 172.256 384 384 0 211.712-172.256 384-384 384z"  horiz-adv-x="1024" />

    
    <glyph glyph-name="delete" unicode="&#59137;" d="M512 64c-176.448 0-320 143.552-320 320S335.552 704 512 704s320-143.552 320-320-143.552-320-320-320m0 704C300.256 768 128 595.744 128 384s172.256-384 384-384 384 172.256 384 384S723.744 768 512 768M649.824 534.624a31.968 31.968 0 0 1-45.248 0L505.6 435.648l-98.976 98.976a31.968 31.968 0 1 1-45.248-45.248l98.976-98.976-98.976-98.976a32 32 0 0 1 45.248-45.248l98.976 98.976 98.976-98.976a31.904 31.904 0 0 1 45.248 0 31.968 31.968 0 0 1 0 45.248L550.848 390.4l98.976 98.976a31.968 31.968 0 0 1 0 45.248"  horiz-adv-x="1024" />

    
    <glyph glyph-name="document" unicode="&#59138;" d="M224 64.064V703.904L223.808 704H576v-159.936c0-35.328 28.736-64.064 64.064-64.064h159.712c0.032-0.512 0.224-1.184 0.224-1.664L800.256 64 224 64.064zM757.664 544L640 544.064V671.872L757.664 544z m76.064 11.872l-163.872 178.08C651.712 753.664 619.264 768 592.672 768H223.808A64.032 64.032 0 0 1 160 703.904v-639.84A64 64 0 0 1 223.744 0h576.512A64 64 0 0 1 864 64.128V478.336c0 25.856-12.736 58.464-30.272 77.536zM640 384h-256a32 32 0 0 1 0-64h256a32 32 0 0 1 0 64M640 224h-256a32 32 0 0 1 0-64h256a32 32 0 0 1 0 64"  horiz-adv-x="1024" />

    
    <glyph glyph-name="document_fill" unicode="&#59139;" d="M833.728 555.872l-163.904 178.144c-7.744 8.448-18.4 15.552-29.824 21.28v-211.2l202.4-0.064c-2.752 4.192-5.536 8.448-8.64 11.84M640 320h-256a32 32 0 1 0 0 64h256a32 32 0 1 0 0-64m0-160h-256a32 32 0 1 0 0 64h256a32 32 0 1 0 0-64m223.808 320h-223.744A64.128 64.128 0 0 0 576 544.128V768H223.808A64 64 0 0 1 160 703.936v-639.84A64 64 0 0 1 223.744 0h576.512A64 64 0 0 1 864 64.16V478.368c0 0.544-0.16 1.12-0.192 1.664"  horiz-adv-x="1024" />

    
    <glyph glyph-name="dynamic_fill" unicode="&#59140;" d="M763.712 407.936l-139.424-139.424a31.904 31.904 0 0 0-45.248 0l-102.336 102.336-134.208-132.864a31.936 31.936 0 0 0-45.248 0.256 32 32 0 0 0 0.224 45.248l156.832 155.264a32 32 0 0 0 45.152-0.128l102.208-102.24 116.8 116.8a31.968 31.968 0 1 0 45.248-45.248M800.256 736H223.744A63.808 63.808 0 0 1 160 672.256v-576.512C160 60.576 188.576 32 223.744 32h576.512A63.808 63.808 0 0 1 864 95.744V672.256A63.84 63.84 0 0 1 800.256 736"  horiz-adv-x="1024" />

    
    <glyph glyph-name="dynamic" unicode="&#59141;" d="M224 95.744V672l576 0.288 0.256-576.32L224 95.776zM800.256 736H223.744A63.808 63.808 0 0 1 160 672.288v-576.544C160 60.608 188.608 32 223.744 32h576.512A63.84 63.84 0 0 1 864 95.744V672.288a63.808 63.808 0 0 1-63.744 63.68zM718.464 453.184l-116.8-116.768-102.176 102.208a32 32 0 0 1-45.152 0.128l-156.832-155.2a32.032 32.032 0 0 1 45.024-45.536l134.208 132.832 102.336-102.336a32.96 32.96 0 0 1 45.248 0l139.392 139.424a31.968 31.968 0 1 1-45.248 45.248"  horiz-adv-x="1024" />

    
    <glyph glyph-name="editor" unicode="&#59142;" d="M489.376 361.376a31.904 31.904 0 0 1 45.248 0l304 304a31.968 31.968 0 1 1-45.248 45.248l-304-304a31.968 31.968 0 0 1 0-45.248M832 416a32 32 0 0 1-32-32l0.256-288L224 95.744 223.744 672H512a32 32 0 0 1 0 64H223.744A63.84 63.84 0 0 1 160 672.256v-576.512C160 60.608 188.608 32 223.744 32h576.512A63.84 63.84 0 0 1 864 95.744V384a32 32 0 0 1-32 32"  horiz-adv-x="1024" />

    
    <glyph glyph-name="eit" unicode="&#59143;" d="M597.696 469.056c-0.032-1.28-0.896-8.128-9.344-41.952l-22.304-84.384c-7.136-24.96-22.624-47.68-46.144-67.52-24.992-21.44-50.336-32.32-75.36-32.32-21.952 0-38.848 7.584-51.872 23.456-12.32 14.016-18.592 34.432-18.592 60.672 0 61.12 17.44 112.704 51.776 153.184l0.16 0.192c31.776 39.104 67.712 58.08 109.952 58.08 19.616 0 34.4-7.616 45.536-23.776 10.88-14.304 16.192-29.28 16.192-45.632m277.696-248.416a11.2 11.2 0 0 1-9.76 5.728h-53.504a11.2 11.2 0 0 1-9.12-4.704c-27.36-38.56-64.32-70.112-109.664-93.76-52.608-26.272-114.72-39.616-184.64-39.616-91.264 0-165.888 26.464-221.76 78.56-56.384 53.952-84.992 129.76-84.992 225.28 0 89.184 29.632 163.712 88.192 221.632 57.824 58.464 131.68 88.064 219.52 88.064 82.208 0 149.312-24.448 199.264-72.544C755.776 582.4 779.52 523.584 779.52 454.4c0-58.72-17.856-111.04-52.896-155.328-30.08-36.64-59.52-55.2-87.616-55.2-17.472 0-18.944 7.136-18.944 15.04 0 14.304 3.424 31.776 10.336 52.576L700.448 576a11.2 11.2 0 0 1-10.816 14.048h-48.64a11.2 11.2 0 0 1-10.784-8.16l-7.744-27.296c-19.584 35.808-50.88 53.92-93.312 53.92-60.896 0-114.496-27.2-159.136-80.64-47.04-53.696-70.848-120.96-70.848-199.904 0-43.52 13.088-80.064 38.72-108.512 25.504-28.992 60.384-43.712 103.776-43.712 45.504 0 86.176 18.464 121.152 54.912 11.648-43.072 44.128-52.928 71.36-52.928 51.296 0 99.712 27.52 144.064 82.144 44.768 58.144 67.456 123.584 67.456 194.528 0 88.864-29.216 163.168-86.88 220.8C697.92 736.832 615.04 768 512.64 768c-110.88 0-203.84-37.12-276.256-110.176C164.48 587.2 128 498.464 128 394.08c0-110.88 35.52-201.6 105.6-269.696 69.92-66.56 162.464-100.32 275.136-100.32 79.872 0 153.216 16.768 218.016 49.824 63.2 31.936 113.12 77.504 148.416 135.456a11.168 11.168 0 0 1 0.224 11.296"  horiz-adv-x="1024" />

    
    <glyph glyph-name="emoji_fill" unicode="&#59144;" d="M712.32 272a224.8 224.8 0 0 0-193.984-112 224.928 224.928 0 0 0-194.048 111.936 32 32 0 1 0 55.392 32.064 160.736 160.736 0 0 1 138.656-80 160.608 160.608 0 0 1 138.592 80 32 32 0 0 0 55.392-32zM352 512a32 32 0 1 0 64 0v-96a32 32 0 1 0-64 0v96z m256 0a32 32 0 1 0 64 0v-96a32 32 0 1 0-64 0v96z m-96 256C300.256 768 128 595.68 128 384c0-211.744 172.256-384 384-384 211.712 0 384 172.256 384 384 0 211.712-172.288 384-384 384z"  horiz-adv-x="1024" />

    
    <glyph glyph-name="emoji" unicode="&#59145;" d="M512 64c-176.448 0-320 143.552-320 320S335.552 704 512 704s320-143.552 320-320-143.552-320-320-320m0 704C300.256 768 128 595.744 128 384s172.256-384 384-384 384 172.256 384 384S723.744 768 512 768M700.64 315.712a32 32 0 0 1-43.712-11.68A160.608 160.608 0 0 0 518.304 224a160.576 160.576 0 0 0-138.592 80 32 32 0 0 1-55.424-32.032 224.896 224.896 0 0 1 194.016-112 224.768 224.768 0 0 1 194.016 112 32 32 0 0 1-11.68 43.744M384 384a32 32 0 0 1 32 32v96a32 32 0 0 1-64 0v-96a32 32 0 0 1 32-32M640 384a32 32 0 0 1 32 32v96a32 32 0 0 1-64 0v-96a32 32 0 0 1 32-32"  horiz-adv-x="1024" />

    
    <glyph glyph-name="empty" unicode="&#59146;" d="M590.208 441.824v-210.496a32 32 0 1 1 64 0v210.496a32 32 0 1 1-64 0M398.208 441.824v-210.496a32 32 0 1 1 64 0v210.496a32 32 0 1 1-64 0M377.664 636.416l-8.896 63.36 253.504 35.648 8.928-63.392-253.536-35.616z m443.616 62.336l-126.72-17.792-11.872 84.416a36.512 36.512 0 0 1-14.432 24.224c-16.416 12.384-41.28 11.072-54.752 9.216L359.68 763.136c-46.592-6.56-60.16-30.688-57.28-51.072l11.84-84.544-126.72-17.824a32 32 0 1 1 8.928-63.36l45.92 6.432a31.36 31.36 0 0 1-4.192-14.976v-447.936c0-35.328 28.704-64.032 64-64.032h447.968a64.096 64.096 0 0 1 64 64.032V537.792a32 32 0 1 1-64 0v-447.968l-448 0.032V537.792a31.744 31.744 0 0 1-8.992 22.112l537.056 75.488a32 32 0 0 1 27.2 36.16 31.648 31.648 0 0 1-36.16 27.2z"  horiz-adv-x="1024" />

    
    <glyph glyph-name="empty_fill" unicode="&#59147;" d="M821.344 698.752l-126.752-17.824-11.904 84.512a36.48 36.48 0 0 1-14.464 24.192c-16.416 12.384-41.376 11.072-54.688 9.152l-253.792-35.648c-46.624-6.56-60.16-30.688-57.312-51.072l11.008-78.24 0.896-6.336-76.128-10.688-50.656-7.136a32 32 0 1 1 8.928-63.36l23.552 3.328 18.176 2.528 4.224 0.608 50.752 7.136 63.936 8.992 73.088 10.272 192 26.976 192 27.008 16.032 2.24c17.504 2.432 29.696 18.624 27.232 36.128s-18.528 29.76-36.128 27.232zM398.208 441.792a32 32 0 0 0 64 0v-210.496a32 32 0 0 0-64 0v210.496z m192 0a32 32 0 0 0 64 0v-210.496a32 32 0 0 0-64 0v210.496z m-352 40.736v-392.704c0-20.608 9.984-38.816 25.184-50.56 10.816-8.32 24.192-13.44 38.848-13.44h447.936a63.36 63.36 0 0 1 38.816 13.44c15.232 11.712 25.216 29.888 25.216 50.56V501.824H237.344l0.864-19.328z"  horiz-adv-x="1024" />

    
    <glyph glyph-name="enter" unicode="&#59148;" d="M693.792 397.76l-320 297.664a32 32 0 0 1-43.584-46.848l295.36-274.752-295.84-286.848a31.968 31.968 0 1 1 44.544-45.92l320 310.272a31.968 31.968 0 0 1-0.48 46.4"  horiz-adv-x="1024" />

    
    <glyph glyph-name="enterinto" unicode="&#59149;" d="M512 64c-176.448 0-320 143.552-320 320S335.552 704 512 704s320-143.552 320-320-143.552-320-320-320m0 704C300.256 768 128 595.744 128 384s172.256-384 384-384 384 172.256 384 384S723.744 768 512 768M469.376 535.808a31.968 31.968 0 1 1-42.752-47.616l134.016-120.32-134.496-125.856a32 32 0 0 1 43.712-46.72l160 149.696a31.968 31.968 0 0 1-0.48 47.168l-160 143.68z"  horiz-adv-x="1024" />

    
    <glyph glyph-name="enterinto_fill" unicode="&#59150;" d="M629.856 345.024l-160-149.76a31.904 31.904 0 0 0-45.216 1.504 31.936 31.936 0 0 0 1.504 45.216l134.496 125.888-134.016 120.32a32 32 0 1 0 42.752 47.616l160-143.616a31.904 31.904 0 0 0 0.48-47.168M512 768C300.256 768 128 595.744 128 384c0-211.712 172.256-384 384-384s384 172.288 384 384c0 211.744-172.256 384-384 384"  horiz-adv-x="1024" />

    
    <glyph glyph-name="feedback_fill" unicode="&#59151;" d="M544 314.304v-15.488a32 32 0 1 0-64 0V336c0 14.848 10.304 26.752 24 30.4 72.032 30.08 72.064 74.688 72 76.608l-0.032 49.184c0 28.544-28.704 51.84-64 51.84-35.264 0-63.968-23.296-63.968-51.84v-15.584a32 32 0 0 0-64 0v15.584c0 63.84 57.408 115.84 127.968 115.84 70.592 0 128-52 128-115.84v-47.584c0.16-1.28 4.672-80.768-95.968-130.304M512 160a32 32 0 1 0 0 64 32 32 0 0 0 0-64m0 608C300.256 768 128 595.712 128 384c0-211.744 172.256-384 384-384s384 172.256 384 384c0 211.712-172.256 384-384 384"  horiz-adv-x="1024" />

    
    <glyph glyph-name="feedback" unicode="&#59152;" d="M704 128.608A318.016 318.016 0 0 0 512 64a318.016 318.016 0 0 0-192 64.608C242.464 187.072 192 279.616 192 384c0 176.448 143.552 320 320 320s320-143.552 320-320c0-104.384-50.464-196.928-128-255.392M512 768C300.256 768 128 595.744 128 384c0-141.76 77.408-265.504 192-332.032A381.312 381.312 0 0 1 511.936 0h0.128A381.312 381.312 0 0 1 704 51.968c114.592 66.528 192 190.272 192 332.032 0 211.744-172.256 384-384 384M639.936 492.16C639.936 556.096 582.528 608 512 608c-70.592 0-128-51.936-128-115.84v-15.52a32 32 0 1 1 64 0v15.552c0 28.576 28.736 51.808 64 51.808 35.296 0 64-23.232 64-51.84v-49.152c0.064-1.536-0.544-31.616-39.808-59.008a169.44 169.44 0 0 0-32.16-17.6 31.584 31.584 0 0 1-24-30.4v-37.184a32 32 0 0 1 64 0v15.488c41.952 20.672 65.696 46.464 79.04 69.696 18.56 32.512 16.992 59.84 16.896 60.64V492.16zM512 224a32 32 0 1 1 0-64 32 32 0 0 1 0 64"  horiz-adv-x="1024" />

    
    <glyph glyph-name="flag_fill" unicode="&#59153;" d="M788.352 352.64l-111.168 153.312 111.168 153.376c12.16 16.8 14.528 35.584 6.4 51.552C786.624 726.816 769.984 736 749.12 736H288.064A63.968 63.968 0 0 1 224 672.224V32a32 32 0 0 1 64 0v243.968h461.12c20.992 0 37.696 9.184 45.824 25.088 8.064 15.84 5.696 34.656-6.592 51.584"  horiz-adv-x="1024" />

    
    <glyph glyph-name="flag" unicode="&#59154;" d="M288 339.744V672.288l430.464-0.32-120.352-165.952 120.384-166.016L288 339.744z m500.352 12.928l-111.168 153.344 111.168 153.344c12.192 16.832 14.528 35.648 6.368 51.584-8.128 15.936-24.736 25.056-45.568 25.056H288.064A63.968 63.968 0 0 1 224 672.288V32a32 32 0 0 1 64 0v244H749.152c20.96 0 37.664 9.12 45.76 25.024 8.096 15.872 5.728 34.72-6.56 51.648z"  horiz-adv-x="1024" />

    
    <glyph glyph-name="flashlight" unicode="&#59155;" d="M488.64 139.392l38.08 148a32 32 0 0 1-27.008 39.744l-210.432 26.176 243.648 267.328-37.088-148.32a32 32 0 0 1 27.104-39.52l211.392-26.176-245.728-267.2z m341.408 302.4a32.096 32.096 0 0 1-26.112 20.736l-237.248 29.344 59.136 236.352a32.032 32.032 0 0 1-54.72 29.312L200.32 350.752a32 32 0 0 1 19.712-53.312l235.68-29.312-60.864-236.352a32 32 0 0 1 54.528-29.632l374.208 406.944c8.096 8.832 10.56 21.44 6.464 32.704z"  horiz-adv-x="1024" />

    
    <glyph glyph-name="flashlight_fill" unicode="&#59156;" d="M830.016 441.76a32 32 0 0 1-26.112 20.736l-237.216 29.344 59.136 236.384a31.968 31.968 0 0 1-54.688 29.312L200.32 350.72a32 32 0 0 1 19.712-53.312l235.648-29.28-60.896-236.32a32.032 32.032 0 0 1 54.56-29.664l374.208 406.944a32 32 0 0 1 6.464 32.672"  horiz-adv-x="1024" />

    
    <glyph glyph-name="flip" unicode="&#59157;" d="M401.408 384c0 52.928 43.072 96 96 96s96-43.072 96-96-43.072-96-96-96-96 43.072-96 96m256 0c0 88.224-71.776 160-160 160s-160-71.776-160-160 71.776-160 160-160 160 71.776 160 160M890.336 326.112a31.584 31.584 0 0 1-40.928 2.88V671.712a64.128 64.128 0 0 1-63.744 64.32H209.12a63.776 63.776 0 0 1-63.68-63.776v-65.152a32 32 0 1 1 64 0L209.088 672l576.32-0.288V330.56a31.52 31.52 0 0 1-38.624-4.416 31.968 31.968 0 0 1 0-45.248l49.12-49.152a31.968 31.968 0 0 1 45.248 0l49.152 49.152a31.968 31.968 0 0 1 0 45.248M817.408 191.936a32 32 0 0 1-32-32L785.664 96l-576.256 0.32V433.28a31.648 31.648 0 0 1 16.864-5.568 31.968 31.968 0 0 1 22.624 54.624L199.776 531.52a32 32 0 0 1-45.248 0l-49.152-49.152a31.968 31.968 0 0 1 0-45.248 31.552 31.552 0 0 1 40-3.456V96.32c0-35.456 28.64-64.32 63.776-64.32h576.512a63.936 63.936 0 0 1 63.744 64v64a32 32 0 0 1-32 32"  horiz-adv-x="1024" />

    
    <glyph glyph-name="flip_fill" unicode="&#59158;" d="M657.408 384c0 88.224-71.776 160-160 160s-160-71.776-160-160 71.776-160 160-160 160 71.776 160 160M890.336 326.112a31.616 31.616 0 0 1-40.928 2.88V671.712a64.128 64.128 0 0 1-63.744 64.32H209.152a63.808 63.808 0 0 1-63.744-63.808v-65.152a32 32 0 1 1 64 0l-0.256 64.96 576.256-0.32v-341.12a31.584 31.584 0 0 1-38.592-4.48 31.968 31.968 0 0 1 0-45.248l49.152-49.152a31.904 31.904 0 0 1 45.248 0l49.152 49.152a32 32 0 0 1 0 45.248M817.408 191.936a32 32 0 0 1-32-32L785.664 96l-576.256 0.32V433.28a31.648 31.648 0 0 1 16.864-5.568 32 32 0 0 1 22.656 54.624l-49.12 49.152a32 32 0 0 1-45.28 0l-49.152-49.152a31.968 31.968 0 0 1 0-45.248c10.944-10.976 27.616-11.712 40-3.456V96.32c0-35.488 28.64-64.32 63.776-64.32h576.512a63.904 63.904 0 0 1 63.744 63.936v64a32 32 0 0 1-32 32"  horiz-adv-x="1024" />

    
    <glyph glyph-name="fullscreen" unicode="&#59159;" d="M409.376 342.624L224 157.248V288a32 32 0 0 1-64 0v-192.544c0-3.488 0.48-6.848 1.024-10.176a31.456 31.456 0 0 1 8.352-27.904c2.336-2.336 5.152-3.808 7.904-5.248 11.648-12.48 28.096-20.384 46.464-20.384h192.512a32 32 0 1 1 0 64l-163.488-0.224 201.856 201.856a31.968 31.968 0 1 1-45.248 45.248M800.512 736H608a32 32 0 0 1 0-64l146.944 0.192-201.568-201.568a31.968 31.968 0 1 1 45.248-45.248l201.632 201.632v-147.264a32 32 0 1 1 64 0V672.256A63.84 63.84 0 0 1 800.512 736"  horiz-adv-x="1024" />

    
    <glyph glyph-name="group" unicode="&#59160;" d="M864 51.232a2.464 2.464 0 0 0-1.504-0.704L288 51.904V169.92c0 5.824 6.016 14.944 12.096 17.44C301.664 188 456.992 256 576 256c118.752 0 274.336-68 276.864-69.088 5.216-2.08 11.136-11.168 11.136-17.024v-118.656zM480.48 455.2v104.736A112.064 112.064 0 0 0 592.256 672 112 112 0 0 0 704 559.936v-104.736a112 112 0 0 0-111.744-112.064 112 112 0 0 0-111.776 112.064z m397.248-209.28c-4.992 2.176-92.64 40.384-191.008 61.056A176 176 0 0 1 768 455.2v104.736C768 657.024 689.152 736 592.256 736c-96.928 0-175.776-78.976-175.776-176.064v-104.736c0-59.136 29.344-111.456 74.112-143.36-108.16-18.72-210.752-63.488-215.552-65.6C245.952 234.24 224 201.44 224 169.856v-126.4h0.544a65.536 65.536 0 0 1 64.96-56.96h572.992c28.672 0 54.304 18.752 63.808 46.72l1.696 4.96V169.92c0 31.808-22.016 64.672-50.272 76zM360.384 322.56c1.024 0 1.952-0.288 2.976-0.288a32 32 0 1 1 0 64A68.736 68.736 0 0 0 294.72 455.04v84.256C294.72 577.152 325.504 608 363.36 608a32 32 0 0 1 0 64 132.832 132.832 0 0 1-132.64-132.736v-84.256c0-32.736 12.352-62.368 32.064-85.536-62.72-19.296-117.536-49.696-127.584-55.456C112.352 303.2 96 277.312 96 251.552v-91.904a32 32 0 1 1 64 0v91.744a11.424 11.424 0 0 0 2.336 4.672 28.992 28.992 0 0 1 3.584 1.824c30.432 17.728 123.84 63.712 189.76 63.712 1.632 0 3.104 0.704 4.704 0.96"  horiz-adv-x="1024" />

    
    <glyph glyph-name="group_fill" unicode="&#59161;" d="M877.728 245.888c-4.992 2.208-92.64 40.416-191.04 61.088A176 176 0 0 1 768 455.2v104.736C768 657.024 689.184 736 592.288 736a175.168 175.168 0 0 1-131.584-59.712 175.424 175.424 0 0 1-44.192-116.352v-104.736c0-59.136 29.344-111.456 74.112-143.392-108.16-18.688-210.752-63.456-215.552-65.6C245.92 234.272 224 201.472 224 169.888v-126.4h0.544a65.536 65.536 0 0 1 64.96-56.96h572.992c28.672 0 54.304 18.752 63.808 46.688l1.696 4.992v131.68c0 31.808-22.016 64.672-50.272 76M322.432 318.112c34.976 10.912 51.552 17.024 51.552 17.024s22.656 9.984 16.672 29.984c-14.016 26.688-24 47.36-24 125.344V591.808s6.016 49.312 24.992 53.984c1.536 1.632 1.792 4.032 1.12 6.72a31.936 31.936 0 0 1-29.408 19.52 132.832 132.832 0 0 1-132.64-132.768v-84.256c0-32.736 12.352-62.368 32.064-85.536-62.72-19.296-117.536-49.696-127.584-55.456C112.352 303.2 96 277.312 96 251.552v-91.904a32 32 0 0 1 32-32 31.68 31.68 0 0 1 31.296 28.48c0.128 1.184 0.704 2.272 0.704 3.52v14.656c2.56 30.304 13.92 85.312 60.992 111.072 7.2 3.2 14.88 6.336 22.72 9.44a2978.88 2978.88 0 0 1 78.72 23.296"  horiz-adv-x="1024" />

    
    <glyph glyph-name="headlines_fill" unicode="&#59162;" d="M768 384h-192v192h192v-192z m-320-32a32 32 0 0 0-32-32H288a32 32 0 0 0 0 64h128c8.544 0 16.192-3.456 21.92-8.896A31.776 31.776 0 0 0 448 352z m128-128a32 32 0 0 0-32-32H288a32 32 0 0 0 0 64h256c8.544 0 16.192-3.456 21.92-8.896A31.776 31.776 0 0 0 576 224z m255.904 480H192.064A64 64 0 0 1 128 640.224v-512.448c0-8.064 1.664-15.712 4.416-22.816 0.256-0.64 0.352-1.344 0.608-1.984 0.768-1.792 1.888-3.392 2.816-5.12 1.024-1.92 1.888-3.936 3.104-5.696 0.64-0.96 1.472-1.696 2.144-2.592 1.792-2.368 3.584-4.8 5.696-6.848 0.992-0.992 2.176-1.728 3.2-2.656 2.048-1.792 4.032-3.648 6.304-5.152 0.448-0.32 1.024-0.512 1.504-0.832 2.976-1.92 6.048-3.68 9.376-5.056 3.232-1.376 6.688-2.336 10.176-3.136 0.608-0.16 1.184-0.448 1.824-0.576 4.16-0.864 8.48-1.312 12.928-1.312h639.84A64 64 0 0 1 896 127.776V640.192A64 64 0 0 1 831.904 704z"  horiz-adv-x="1024" />

    
    <glyph glyph-name="headlines" unicode="&#59163;" d="M831.904 128L192 127.776 192.096 640 832 640.192l0.224-512.16-0.32-0.032m0 576H192.096A64 64 0 0 1 128 640.192v-512.416A64 64 0 0 1 192.096 64h639.808A64.032 64.032 0 0 1 896 127.776V640.192A64.032 64.032 0 0 1 831.904 704M288 320h128a32 32 0 1 1 0 64H288a32 32 0 1 1 0-64M544 256H288a32 32 0 1 1 0-64h256a32 32 0 1 1 0 64M512 576v-256h256v256h-256z m192-192h-128v128h128v-128z"  horiz-adv-x="1024" />

    
    <glyph glyph-name="homepage_fill" unicode="&#59164;" d="M640 105.472H297.504v0.096l86.496-0.032v118.88c0 0.8 0.224 1.536 0.224 2.304 1.28 69.6 57.984 125.888 127.776 125.888s126.496-56.32 127.776-125.888c0-0.768 0.224-1.504 0.224-2.304v-118.944z m240.896 427.68L800 586.144V688.832a32 32 0 1 1-64 0v-60.8l-206.464 135.328A31.296 31.296 0 0 1 511.424 768a31.168 31.168 0 0 1-17.6-4.64L142.464 533.12a32 32 0 0 1 35.072-53.536L192 489.088V96c0-30.08 27.168-54.592 60.576-54.592h518.848C804.832 41.44 832 65.92 832 96V488.64l13.856-9.056a31.968 31.968 0 0 1 35.04 53.536z"  horiz-adv-x="1024" />

    
    <glyph glyph-name="homepage" unicode="&#59165;" d="M768 105.44l-128 0.032v118.944a128.224 128.224 0 0 1-128 128.192c-70.592 0-128-57.504-128-128.192v-118.88l-128 0.032V531.008l255.68 167.52L768 530.624v-425.184z m-192 0.032l-128 0.032v118.912c0 35.392 28.704 64.192 64 64.192s64-28.8 64-64.192v-118.944z m304.896 427.68L800 586.144V688.832a32 32 0 1 1-64 0v-60.768l-206.464 135.296A31.296 31.296 0 0 1 511.424 768a31.168 31.168 0 0 1-17.6-4.64l-351.36-230.208a32 32 0 0 1 35.072-53.536L192 489.088v-393.056c0-30.08 27.2-54.592 60.576-54.592h518.848c33.408 0 60.576 24.512 60.576 54.592v392.64l13.856-9.056a31.968 31.968 0 0 1 35.04 53.536z"  horiz-adv-x="1024" />

    
    <glyph glyph-name="integral_fill" unicode="&#59166;" d="M615.04 448h-224a32 32 0 0 0 0 64h224a32 32 0 0 0 0-64m257.184 69.792L815.68 654.464a72.064 72.064 0 0 1-8.64 14.816V672h-2.048c-15.264 19.008-39.68 32-63.488 32H264.48c-23.776 0-48.224-12.96-63.456-32H199.04v-2.752a70.4 70.4 0 0 1-8.704-14.88L133.76 517.536c-11.2-27.136-5.632-64.608 12.992-87.2l52.256-63.36L264.16 288l193.696-234.88c11.52-13.92 27.968-21.92 45.12-21.92h0.032c17.184 0 33.632 8.032 45.12 21.952L741.76 288l65.28 79.232 52.224 63.36c18.944 22.944 24.384 59.616 12.992 87.2"  horiz-adv-x="1024" />

    
    </font>
</defs>
</svg>
